  0
SECTION
  2
HEADER
  9
$ACADVER
  1
AC1024
  9
$ACADMAINTVER
 70
6
  9
$DWGCODEPAGE
  3
ANSI_1252
  9
$LASTSAVEDBY
  1
ezdxf
  9
$INSBASE
 10
0.0
 20
0.0
 30
0.0
  9
$EXTMIN
 10
1e+20
 20
1e+20
 30
1e+20
  9
$EXTMAX
 10
-1e+20
 20
-1e+20
 30
-1e+20
  9
$LIMMIN
 10
0.0
 20
0.0
  9
$LIMMAX
 10
420.0
 20
297.0
  9
$ORTHOMODE
 70
0
  9
$REGENMODE
 70
1
  9
$FILLMODE
 70
1
  9
$QTEXTMODE
 70
0
  9
$MIRRTEXT
 70
1
  9
$LTSCALE
 40
1.0
  9
$ATTMODE
 70
1
  9
$TEXTSIZE
 40
2.5
  9
$TRACEWID
 40
1.0
  9
$TEXTSTYLE
  7
Standard
  9
$CLAYER
  8
0
  9
$CELTYPE
  6
ByLayer
  9
$CECOLOR
 62
256
  9
$CELTSCALE
 40
1.0
  9
$DISPSILH
 70
0
  9
$DIMSCALE
 40
1.0
  9
$DIMASZ
 40
2.5
  9
$DIMEXO
 40
0.625
  9
$DIMDLI
 40
3.75
  9
$DIMRND
 40
0.0
  9
$DIMDLE
 40
0.0
  9
$DIMEXE
 40
1.25
  9
$DIMTP
 40
0.0
  9
$DIMTM
 40
0.0
  9
$DIMTXT
 40
2.5
  9
$DIMCEN
 40
2.5
  9
$DIMTSZ
 40
0.0
  9
$DIMTOL
 70
0
  9
$DIMLIM
 70
0
  9
$DIMTIH
 70
0
  9
$DIMTOH
 70
0
  9
$DIMSE1
 70
0
  9
$DIMSE2
 70
0
  9
$DIMTAD
 70
1
  9
$DIMZIN
 70
8
  9
$DIMBLK
  1

  9
$DIMASO
 70
1
  9
$DIMSHO
 70
1
  9
$DIMPOST
  1

  9
$DIMAPOST
  1

  9
$DIMALT
 70
0
  9
$DIMALTD
 70
3
  9
$DIMALTF
 40
0.03937007874
  9
$DIMLFAC
 40
1.0
  9
$DIMTOFL
 70
1
  9
$DIMTVP
 40
0.0
  9
$DIMTIX
 70
0
  9
$DIMSOXD
 70
0
  9
$DIMSAH
 70
0
  9
$DIMBLK1
  1

  9
$DIMBLK2
  1

  9
$DIMSTYLE
  2
ISO-25
  9
$DIMCLRD
 70
0
  9
$DIMCLRE
 70
0
  9
$DIMCLRT
 70
0
  9
$DIMTFAC
 40
1.0
  9
$DIMGAP
 40
0.625
  9
$DIMJUST
 70
0
  9
$DIMSD1
 70
0
  9
$DIMSD2
 70
0
  9
$DIMTOLJ
 70
0
  9
$DIMTZIN
 70
8
  9
$DIMALTZ
 70
0
  9
$DIMALTTZ
 70
0
  9
$DIMUPT
 70
0
  9
$DIMDEC
 70
2
  9
$DIMTDEC
 70
2
  9
$DIMALTU
 70
2
  9
$DIMALTTD
 70
3
  9
$DIMTXSTY
  7
Standard
  9
$DIMAUNIT
 70
0
  9
$DIMADEC
 70
0
  9
$DIMALTRND
 40
0.0
  9
$DIMAZIN
 70
0
  9
$DIMDSEP
 70
44
  9
$DIMATFIT
 70
3
  9
$DIMFRAC
 70
0
  9
$DIMLDRBLK
  1

  9
$DIMLUNIT
 70
2
  9
$DIMLWD
 70
-2
  9
$DIMLWE
 70
-2
  9
$DIMTMOVE
 70
0
  9
$DIMFXL
 40
1.0
  9
$DIMFXLON
 70
0
  9
$DIMJOGANG
 40
0.785398163397
  9
$DIMTFILL
 70
0
  9
$DIMTFILLCLR
 70
0
  9
$DIMARCSYM
 70
0
  9
$DIMLTYPE
  6

  9
$DIMLTEX1
  6

  9
$DIMLTEX2
  6

  9
$DIMTXTDIRECTION
 70
0
  9
$LUNITS
 70
2
  9
$LUPREC
 70
4
  9
$SKETCHINC
 40
1.0
  9
$FILLETRAD
 40
10.0
  9
$AUNITS
 70
0
  9
$AUPREC
 70
2
  9
$MENU
  1
.
  9
$ELEVATION
 40
0.0
  9
$PELEVATION
 40
0.0
  9
$THICKNESS
 40
0.0
  9
$LIMCHECK
 70
0
  9
$CHAMFERA
 40
0.0
  9
$CHAMFERB
 40
0.0
  9
$CHAMFERC
 40
0.0
  9
$CHAMFERD
 40
0.0
  9
$SKPOLY
 70
0
  9
$TDCREATE
 40
2461309.084849537
  9
$TDUCREATE
 40
2458532.153996898
  9
$TDUPDATE
 40
2461309.084849537
  9
$TDUUPDATE
 40
2458532.1544311
  9
$TDINDWG
 40
0.0
  9
$TDUSRTIMER
 40
0.0
  9
$USRTIMER
 70
1
  9
$ANGBASE
 50
0.0
  9
$ANGDIR
 70
0
  9
$PDMODE
 70
0
  9
$PDSIZE
 40
0.0
  9
$PLINEWID
 40
0.0
  9
$SPLFRAME
 70
0
  9
$SPLINETYPE
 70
6
  9
$SPLINESEGS
 70
8
  9
$HANDSEED
  5
37
  9
$SURFTAB1
 70
6
  9
$SURFTAB2
 70
6
  9
$SURFTYPE
 70
6
  9
$SURFU
 70
6
  9
$SURFV
 70
6
  9
$UCSBASE
  2

  9
$UCSNAME
  2

  9
$UCSORG
 10
0.0
 20
0.0
 30
0.0
  9
$UCSXDIR
 10
1.0
 20
0.0
 30
0.0
  9
$UCSYDIR
 10
0.0
 20
1.0
 30
0.0
  9
$UCSORTHOREF
  2

  9
$UCSORTHOVIEW
 70
0
  9
$UCSORGTOP
 10
0.0
 20
0.0
 30
0.0
  9
$UCSORGBOTTOM
 10
0.0
 20
0.0
 30
0.0
  9
$UCSORGLEFT
 10
0.0
 20
0.0
 30
0.0
  9
$UCSORGRIGHT
 10
0.0
 20
0.0
 30
0.0
  9
$UCSORGFRONT
 10
0.0
 20
0.0
 30
0.0
  9
$UCSORGBACK
 10
0.0
 20
0.0
 30
0.0
  9
$PUCSBASE
  2

  9
$PUCSNAME
  2

  9
$PUCSORG
 10
0.0
 20
0.0
 30
0.0
  9
$PUCSXDIR
 10
1.0
 20
0.0
 30
0.0
  9
$PUCSYDIR
 10
0.0
 20
1.0
 30
0.0
  9
$PUCSORTHOREF
  2

  9
$PUCSORTHOVIEW
 70
0
  9
$PUCSORGTOP
 10
0.0
 20
0.0
 30
0.0
  9
$PUCSORGBOTTOM
 10
0.0
 20
0.0
 30
0.0
  9
$PUCSORGLEFT
 10
0.0
 20
0.0
 30
0.0
  9
$PUCSORGRIGHT
 10
0.0
 20
0.0
 30
0.0
  9
$PUCSORGFRONT
 10
0.0
 20
0.0
 30
0.0
  9
$PUCSORGBACK
 10
0.0
 20
0.0
 30
0.0
  9
$USERI1
 70
0
  9
$USERI2
 70
0
  9
$USERI3
 70
0
  9
$USERI4
 70
0
  9
$USERI5
 70
0
  9
$USERR1
 40
0.0
  9
$USERR2
 40
0.0
  9
$USERR3
 40
0.0
  9
$USERR4
 40
0.0
  9
$USERR5
 40
0.0
  9
$WORLDVIEW
 70
1
  9
$SHADEDGE
 70
3
  9
$SHADEDIF
 70
70
  9
$TILEMODE
 70
1
  9
$MAXACTVP
 70
64
  9
$PINSBASE
 10
0.0
 20
0.0
 30
0.0
  9
$PLIMCHECK
 70
0
  9
$PEXTMIN
 10
1e+20
 20
1e+20
 30
1e+20
  9
$PEXTMAX
 10
-1e+20
 20
-1e+20
 30
-1e+20
  9
$PLIMMIN
 10
0.0
 20
0.0
  9
$PLIMMAX
 10
420.0
 20
297.0
  9
$UNITMODE
 70
0
  9
$VISRETAIN
 70
1
  9
$PLINEGEN
 70
0
  9
$PSLTSCALE
 70
1
  9
$TREEDEPTH
 70
3020
  9
$CMLSTYLE
  2
Standard
  9
$CMLJUST
 70
0
  9
$CMLSCALE
 40
20.0
  9
$PROXYGRAPHICS
 70
1
  9
$MEASUREMENT
 70
1
  9
$CELWEIGHT
370
-1
  9
$ENDCAPS
280
0
  9
$JOINSTYLE
280
0
  9
$LWDISPLAY
290
0
  9
$INSUNITS
 70
4
  9
$HYPERLINKBASE
  1

  9
$STYLESHEET
  1

  9
$XEDIT
290
1
  9
$CEPSNTYPE
380
0
  9
$PSTYLEMODE
290
1
  9
$FINGERPRINTGUID
  2
{B13743A8-AA6F-45C9-B6C6-6027F2A2C2C7}
  9
$VERSIONGUID
  2
{95760AE1-89B0-4F55-87DE-157D33734B61}
  9
$EXTNAMES
290
1
  9
$PSVPSCALE
 40
0.0
  9
$OLESTARTUP
290
0
  9
$SORTENTS
280
127
  9
$INDEXCTL
280
0
  9
$HIDETEXT
280
1
  9
$XCLIPFRAME
280
1
  9
$HALOGAP
280
0
  9
$OBSCOLOR
 70
257
  9
$OBSLTYPE
280
0
  9
$INTERSECTIONDISPLAY
280
0
  9
$INTERSECTIONCOLOR
 70
257
  9
$DIMASSOC
280
2
  9
$PROJECTNAME
  1

  9
$CAMERADISPLAY
290
0
  9
$LENSLENGTH
 40
50.0
  9
$CAMERAHEIGHT
 40
0.0
  9
$STEPSPERSEC
 40
24.0
  9
$STEPSIZE
 40
100.0
  9
$3DDWFPREC
 40
2.0
  9
$PSOLWIDTH
 40
0.005
  9
$PSOLHEIGHT
 40
0.08
  9
$LOFTANG1
 40
1.570796326795
  9
$LOFTANG2
 40
1.570796326795
  9
$LOFTMAG1
 40
0.0
  9
$LOFTMAG2
 40
0.0
  9
$LOFTPARAM
 70
7
  9
$LOFTNORMALS
280
1
  9
$LATITUDE
 40
37.795
  9
$LONGITUDE
 40
-122.394
  9
$NORTHDIRECTION
 40
0.0
  9
$TIMEZONE
 70
-8000
  9
$LIGHTGLYPHDISPLAY
280
1
  9
$TILEMODELIGHTSYNCH
280
1
  9
$CMATERIAL
347
20
  9
$SOLIDHIST
280
0
  9
$SHOWHIST
280
1
  9
$DWFFRAME
280
2
  9
$DGNFRAME
280
2
  9
$REALWORLDSCALE
290
1
  9
$INTERFERECOLOR
 62
256
  9
$CSHADOW
280
0
  9
$SHADOWPLANELOCATION
 40
0.0
  0
ENDSEC
  0
SECTION
  2
CLASSES
  0
CLASS
  1
ACDBDICTIONARYWDFLT
  2
AcDbDictionaryWithDefault
  3
ObjectDBX Classes
 90
0
 91
0
280
0
281
0
  0
CLASS
  1
SUN
  2
AcDbSun
  3
SCENEOE
 90
1153
 91
0
280
0
281
0
  0
CLASS
  1
VISUALSTYLE
  2
AcDbVisualStyle
  3
ObjectDBX Classes
 90
4095
 91
0
280
0
281
0
  0
CLASS
  1
MATERIAL
  2
AcDbMaterial
  3
ObjectDBX Classes
 90
1153
 91
0
280
0
281
0
  0
CLASS
  1
SCALE
  2
AcDbScale
  3
ObjectDBX Classes
 90
1153
 91
0
280
0
281
0
  0
CLASS
  1
TABLESTYLE
  2
AcDbTableStyle
  3
ObjectDBX Classes
 90
4095
 91
0
280
0
281
0
  0
CLASS
  1
MLEADERSTYLE
  2
AcDbMLeaderStyle
  3
ACDB_MLEADERSTYLE_CLASS
 90
4095
 91
0
280
0
281
0
  0
CLASS
  1
DICTIONARYVAR
  2
AcDbDictionaryVar
  3
ObjectDBX Classes
 90
0
 91
0
280
0
281
0
  0
CLASS
  1
CELLSTYLEMAP
  2
AcDbCellStyleMap
  3
ObjectDBX Classes
 90
1152
 91
0
280
0
281
0
  0
CLASS
  1
MENTALRAYRENDERSETTINGS
  2
AcDbMentalRayRenderSettings
  3
SCENEOE
 90
1024
 91
0
280
0
281
0
  0
CLASS
  1
ACDBDETAILVIEWSTYLE
  2
AcDbDetailViewStyle
  3
ObjectDBX Classes
 90
1025
 91
0
280
0
281
0
  0
CLASS
  1
ACDBSECTIONVIEWSTYLE
  2
AcDbSectionViewStyle
  3
ObjectDBX Classes
 90
1025
 91
0
280
0
281
0
  0
CLASS
  1
RASTERVARIABLES
  2
AcDbRasterVariables
  3
ISM
 90
0
 91
0
280
0
281
0
  0
CLASS
  1
LAYOUT
  2
AcDbLayout
  3
ObjectDBX Classes
 90
0
 91
0
280
0
281
0
  0
CLASS
  1
ACDBPLACEHOLDER
  2
AcDbPlaceHolder
  3
ObjectDBX Classes
 90
0
 91
0
280
0
281
0
  0
ENDSEC
  0
SECTION
  2
TABLES
  0
TABLE
  2
VPORT
  5
8
330
0
100
AcDbSymbolTable
 70
1
  0
VPORT
  5
23
330
8
100
AcDbSymbolTableRecord
100
AcDbViewportTableRecord
  2
*Active
 70
0
 10
0.0
 20
0.0
 11
1.0
 21
1.0
 12
0.0
 22
0.0
 13
0.0
 23
0.0
 14
0.5
 24
0.5
 15
0.5
 25
0.5
 16
0.0
 26
0.0
 36
1.0
 17
0.0
 27
0.0
 37
0.0
 40
1000.0
 41
1.34
 42
50.0
 43
0.0
 44
0.0
 50
0.0
 51
0.0
 71
0
 72
1000
 73
1
 74
3
 75
0
 76
0
 77
0
 78
0
281
0
 65
0
146
0.0
  0
ENDTAB
  0
TABLE
  2
LTYPE
  5
2
330
0
100
AcDbSymbolTable
 70
3
  0
LTYPE
  5
24
330
2
100
AcDbSymbolTableRecord
100
AcDbLinetypeTableRecord
  2
ByBlock
 70
0
  3

 72
65
 73
0
 40
0.0
  0
LTYPE
  5
25
330
2
100
AcDbSymbolTableRecord
100
AcDbLinetypeTableRecord
  2
ByLayer
 70
0
  3

 72
65
 73
0
 40
0.0
  0
LTYPE
  5
26
330
2
100
AcDbSymbolTableRecord
100
AcDbLinetypeTableRecord
  2
Continuous
 70
0
  3

 72
65
 73
0
 40
0.0
  0
ENDTAB
  0
TABLE
  2
LAYER
  5
1
330
0
100
AcDbSymbolTable
 70
6
  0
LAYER
  5
27
330
1
100
AcDbSymbolTableRecord
100
AcDbLayerTableRecord
  2
0
 70
0
 62
7
  6
Continuous
370
-3
390
13
347
21
  0
LAYER
  5
28
330
1
100
AcDbSymbolTableRecord
100
AcDbLayerTableRecord
  2
Defpoints
 70
0
 62
7
  6
Continuous
290
0
370
-3
390
13
347
21
  0
LAYER
  5
2F
330
1
100
AcDbSymbolTableRecord
100
AcDbLayerTableRecord
  2
CASE_OUTLINE
 70
0
 62
7
  6
Continuous
370
-3
390
13
347
21
  0
LAYER
  5
30
330
1
100
AcDbSymbolTableRecord
100
AcDbLayerTableRecord
  2
HOLE_CENTERS
 70
0
 62
1
  6
Continuous
370
-3
390
13
347
21
  0
LAYER
  5
31
330
1
100
AcDbSymbolTableRecord
100
AcDbLayerTableRecord
  2
SCANNED_OPENINGS
 70
0
 62
3
  6
Continuous
370
-3
390
13
347
21
  0
LAYER
  5
32
330
1
100
AcDbSymbolTableRecord
100
AcDbLayerTableRecord
  2
LABELS
 70
0
 62
2
  6
Continuous
370
-3
390
13
347
21
  0
ENDTAB
  0
TABLE
  2
STYLE
  5
5
330
0
100
AcDbSymbolTable
 70
1
  0
STYLE
  5
29
330
5
100
AcDbSymbolTableRecord
100
AcDbTextStyleTableRecord
  2
Standard
 70
0
 40
0.0
 41
1.0
 50
0.0
 71
0
 42
2.5
  3
txt
  4

  0
ENDTAB
  0
TABLE
  2
VIEW
  5
7
330
0
100
AcDbSymbolTable
 70
0
  0
ENDTAB
  0
TABLE
  2
UCS
  5
6
330
0
100
AcDbSymbolTable
 70
0
  0
ENDTAB
  0
TABLE
  2
APPID
  5
3
330
0
100
AcDbSymbolTable
 70
3
  0
APPID
  5
2A
330
3
100
AcDbSymbolTableRecord
100
AcDbRegAppTableRecord
  2
ACAD
 70
0
  0
APPID
  5
34
330
3
100
AcDbSymbolTableRecord
100
AcDbRegAppTableRecord
  2
HATCHBACKGROUNDCOLOR
 70
0
  0
APPID
  5
35
330
3
100
AcDbSymbolTableRecord
100
AcDbRegAppTableRecord
  2
EZDXF
 70
0
  0
ENDTAB
  0
TABLE
  2
DIMSTYLE
  5
4
330
0
100
AcDbSymbolTable
 70
1
100
AcDbDimStyleTable
  0
DIMSTYLE
105
2B
330
4
100
AcDbSymbolTableRecord
100
AcDbDimStyleTableRecord
  2
Standard
 70
0
 40
1.0
 41
2.5
 42
0.625
 43
3.75
 44
1.25
 45
0.0
 46
0.0
 47
0.0
 48
0.0
 49
2.5
140
2.5
141
2.5
142
0.0
143
0.03937007874
144
1.0
145
0.0
146
1.0
147
0.625
148
0.0
 69
0
 70
0
 71
0
 72
0
 73
0
 74
0
 75
0
 76
0
 77
1
 78
8
 79
3
170
0
171
3
172
1
173
0
174
0
175
0
176
0
177
0
178
0
179
2
271
2
272
2
273
2
274
3
275
0
276
0
277
2
278
44
279
0
280
0
281
0
282
0
283
0
284
8
285
0
286
0
288
0
289
3
290
0
371
-2
372
-2
  0
ENDTAB
  0
TABLE
  2
BLOCK_RECORD
  5
9
330
0
100
AcDbSymbolTable
 70
2
  0
BLOCK_RECORD
  5
17
330
9
100
AcDbSymbolTableRecord
100
AcDbBlockTableRecord
  2
*Model_Space
340
1A
 70
0
280
1
281
0
  0
BLOCK_RECORD
  5
1B
330
9
100
AcDbSymbolTableRecord
100
AcDbBlockTableRecord
  2
*Paper_Space
340
1E
 70
0
280
1
281
0
  0
ENDTAB
  0
ENDSEC
  0
SECTION
  2
BLOCKS
  0
BLOCK
  5
18
330
17
100
AcDbEntity
  8
0
100
AcDbBlockBegin
  2
*Model_Space
 70
0
 10
0.0
 20
0.0
 30
0.0
  3
*Model_Space
  1

  0
ENDBLK
  5
19
330
17
100
AcDbEntity
  8
0
100
AcDbBlockEnd
  0
BLOCK
  5
1C
330
1B
100
AcDbEntity
  8
0
100
AcDbBlockBegin
  2
*Paper_Space
 70
0
 10
0.0
 20
0.0
 30
0.0
  3
*Paper_Space
  1

  0
ENDBLK
  5
1D
330
1B
100
AcDbEntity
  8
0
100
AcDbBlockEnd
  0
ENDSEC
  0
SECTION
  2
ENTITIES
  0
LWPOLYLINE
  5
33
330
17
100
AcDbEntity
  8
CASE_OUTLINE
100
AcDbPolyline
 90
341
 70
1
 10
-203.3
 20
30.2
 10
-204.2
 20
35.1
 10
-205.05
 20
37.8
 10
-205.0
 20
39.5
 10
-206.1
 20
42.35
 10
-206.2
 20
44.35
 10
-206.65
 20
45.95
 10
-206.3
 20
45.95
 10
-206.25
 20
46.8
 10
-206.55
 20
50.05
 10
-206.2
 20
50.85
 10
-206.4
 20
52.8
 10
-206.0
 20
55.7
 10
-205.45
 20
57.25
 10
-205.6
 20
59.8
 10
-205.2
 20
61.4
 10
-204.8
 20
61.4
 10
-204.6
 20
63.1
 10
-203.3
 20
65.1
 10
-201.95
 20
68.75
 10
-195.5
 20
76.0
 10
-189.05
 20
80.0
 10
-184.25
 20
81.7
 10
-182.1
 20
83.05
 10
-181.85
 20
84.95
 10
-181.25
 20
86.2
 10
-176.5
 20
86.3
 10
-175.95
 20
86.05
 10
-171.8
 20
86.4
 10
-163.85
 20
86.15
 10
-162.9
 20
85.45
 10
-162.75
 20
84.95
 10
-161.7
 20
84.65
 10
-160.85
 20
87.9
 10
-159.25
 20
89.95
 10
-157.75
 20
91.0
 10
-156.0
 20
91.65
 10
-152.95
 20
92.05
 10
-130.8
 20
91.7
 10
-128.25
 20
91.0
 10
-126.4
 20
89.7
 10
-125.2
 20
88.35
 10
-124.45
 20
84.65
 10
-118.1
 20
83.55
 10
-116.05
 20
82.65
 10
-114.25
 20
81.7
 10
-113.35
 20
80.75
 10
-111.85
 20
80.2
 10
-111.25
 20
79.45
 10
-110.6
 20
79.25
 10
-107.9
 20
77.05
 10
-107.05
 20
76.9
 10
-105.45
 20
75.75
 10
-104.8
 20
75.65
 10
-103.8
 20
74.4
 10
-99.55
 20
71.9
 10
-97.35
 20
71.55
 10
-95.55
 20
70.65
 10
-93.7
 20
70.85
 10
-91.25
 20
70.15
 10
-87.0
 20
70.75
 10
-80.25
 20
70.0
 10
-79.25
 20
72.05
 10
-78.4
 20
72.7
 10
-64.15
 20
72.9
 10
-62.55
 20
71.95
 10
-61.85
 20
70.45
 10
-61.35
 20
70.05
 10
-59.55
 20
70.3
 10
-58.8
 20
70.05
 10
-47.8
 20
69.85
 10
-44.9
 20
70.55
 10
-41.55
 20
69.8
 10
-33.25
 20
70.05
 10
-23.45
 20
69.6
 10
-20.75
 20
70.0
 10
-19.5
 20
69.75
 10
-15.85
 20
69.85
 10
-13.45
 20
69.35
 10
-12.35
 20
69.7
 10
-7.25
 20
69.75
 10
-2.95
 20
69.1
 10
-0.7
 20
69.65
 10
1.6
 20
69.2
 10
9.6
 20
69.25
 10
10.6
 20
69.5
 10
15.85
 20
69.3
 10
18.8
 20
69.7
 10
25.3
 20
69.45
 10
27.55
 20
69.75
 10
29.45
 20
69.3
 10
30.9
 20
69.8
 10
33.45
 20
69.8
 10
45.2
 20
69.15
 10
48.8
 20
69.65
 10
51.8
 20
69.4
 10
52.6
 20
68.75
 10
53.35
 20
70.8
 10
54.65
 20
71.8
 10
55.6
 20
72.0
 10
56.75
 20
71.7
 10
57.65
 20
71.9
 10
62.9
 20
71.7
 10
64.55
 20
72.15
 10
68.65
 20
71.85
 10
69.95
 20
71.25
 10
71.5
 20
69.0
 10
72.3
 20
69.5
 10
73.45
 20
69.5
 10
79.8
 20
71.55
 10
88.9
 20
77.85
 10
95.85
 20
81.25
 10
98.4
 20
81.75
 10
99.9
 20
82.5
 10
100.15
 20
82.2
 10
102.35
 20
82.85
 10
107.4
 20
82.35
 10
108.7
 20
82.6
 10
108.55
 20
83.35
 10
109.0
 20
83.8
 10
109.6
 20
86.25
 10
111.7
 20
88.65
 10
114.4
 20
90.15
 10
115.8
 20
90.45
 10
140.75
 20
90.35
 10
142.85
 20
89.3
 10
145.75
 20
86.7
 10
146.8
 20
84.15
 10
146.8
 20
81.7
 10
147.85
 20
81.7
 10
147.85
 20
82.2
 10
148.65
 20
82.2
 10
148.65
 20
81.95
 10
149.4
 20
81.7
 10
150.25
 20
81.95
 10
153.4
 20
81.55
 10
154.6
 20
83.7
 10
156.4
 20
84.5
 10
172.15
 20
84.3
 10
173.35
 20
83.45
 10
173.7
 20
82.5
 10
173.8
 20
79.25
 10
174.65
 20
79.3
 10
174.4
 20
80.1
 10
175.0
 20
79.35
 10
175.45
 20
79.35
 10
175.45
 20
79.7
 10
175.75
 20
79.3
 10
176.95
 20
79.25
 10
177.0
 20
78.95
 10
183.15
 20
75.65
 10
186.15
 20
73.55
 10
187.95
 20
71.95
 10
186.0
 20
73.0
 10
186.0
 20
72.75
 10
186.8
 20
71.95
 10
187.6
 20
71.95
 10
187.6
 20
71.15
 10
188.45
 20
71.15
 10
190.05
 20
69.5
 10
190.6
 20
67.95
 10
191.7
 20
66.85
 10
191.65
 20
66.25
 10
193.3
 20
64.7
 10
193.3
 20
62.55
 10
195.25
 20
61.45
 10
194.95
 20
59.8
 10
195.75
 20
59.8
 10
195.75
 20
58.25
 10
196.55
 20
56.3
 10
196.55
 20
54.1
 10
197.35
 20
53.4
 10
197.4
 20
47.35
 10
197.9
 20
45.95
 10
197.35
 20
45.15
 10
197.35
 20
42.75
 10
196.55
 20
42.75
 10
196.55
 20
41.95
 10
197.35
 20
41.1
 10
197.35
 20
40.3
 10
196.55
 20
40.3
 10
196.45
 20
38.2
 10
196.0
 20
36.95
 10
196.2
 20
35.4
 10
195.75
 20
34.6
 10
194.95
 20
34.6
 10
194.95
 20
33.8
 10
195.5
 20
33.0
 10
194.95
 20
33.0
 10
194.95
 20
32.15
 10
194.3
 20
32.2
 10
194.2
 20
30.95
 10
194.55
 20
30.55
 10
193.7
 20
28.1
 10
193.3
 20
27.3
 10
193.0
 20
27.3
 10
191.7
 20
23.95
 10
191.7
 20
23.25
 10
191.4
 20
23.25
 10
188.25
 20
15.15
 10
186.0
 20
11.05
 10
185.75
 20
11.05
 10
185.2
 20
9.45
 10
182.85
 20
6.25
 10
178.95
 20
-2.1
 10
173.3
 20
-10.85
 10
172.15
 20
-11.9
 10
170.45
 20
-14.3
 10
164.8
 20
-20.05
 10
163.6
 20
-23.85
 10
157.3
 20
-28.7
 10
153.45
 20
-30.65
 10
152.35
 20
-30.45
 10
150.7
 20
-29.15
 10
148.35
 20
-26.05
 10
145.25
 20
-27.9
 10
143.7
 20
-29.2
 10
143.4
 20
-32.7
 10
142.3
 20
-35.75
 10
142.0
 20
-38.05
 10
141.8
 20
-38.65
 10
140.05
 20
-40.35
 10
129.3
 20
-46.4
 10
127.95
 20
-46.7
 10
126.4
 20
-45.85
 10
125.05
 20
-47.15
 10
124.8
 20
-48.65
 10
123.8
 20
-49.35
 10
120.15
 20
-50.9
 10
118.05
 20
-52.35
 10
114.6
 20
-53.6
 10
108.25
 20
-57.35
 10
105.9
 20
-57.55
 10
94.75
 20
-62.05
 10
94.4
 20
-64.1
 10
93.55
 20
-64.35
 10
92.85
 20
-63.3
 10
92.2
 20
-62.95
 10
82.65
 20
-65.7
 10
81.3
 20
-65.05
 10
79.95
 20
-67.05
 10
78.85
 20
-67.6
 10
74.95
 20
-68.95
 10
66.3
 20
-71.05
 10
64.7
 20
-71.75
 10
64.35
 20
-72.85
 10
63.35
 20
-73.4
 10
49.65
 20
-76.15
 10
48.75
 20
-76.75
 10
48.5
 20
-77.75
 10
47.95
 20
-78.3
 10
47.35
 20
-78.15
 10
46.75
 20
-76.9
 10
46.1
 20
-76.75
 10
30.65
 20
-78.65
 10
14.6
 20
-79.95
 10
12.9
 20
-80.4
 10
12.3
 20
-81.6
 10
11.5
 20
-81.45
 10
10.55
 20
-80.25
 10
9.7
 20
-80.1
 10
3.65
 20
-80.15
 10
3.2
 20
-79.1
 10
3.2
 20
-77.4
 10
2.8
 20
-76.8
 10
2.6
 20
-74.25
 10
-1.45
 20
-74.2
 10
-2.55
 20
-74.55
 10
-3.1
 20
-74.25
 10
-6.45
 20
-74.6
 10
-8.75
 20
-74.45
 10
-9.55
 20
-74.7
 10
-10.1
 20
-74.4
 10
-10.7
 20
-74.65
 10
-13.7
 20
-74.4
 10
-14.2
 20
-74.05
 10
-14.45
 20
-76.6
 10
-15.55
 20
-77.35
 10
-21.8
 20
-77.15
 10
-22.7
 20
-77.4
 10
-23.75
 20
-78.5
 10
-24.35
 20
-78.3
 10
-25.5
 20
-77.0
 10
-42.85
 20
-75.55
 10
-47.95
 20
-74.65
 10
-51.9
 20
-74.5
 10
-58.0
 20
-73.5
 10
-58.9
 20
-73.8
 10
-59.4
 20
-74.8
 10
-60.0
 20
-74.9
 10
-61.35
 20
-73.0
 10
-63.75
 20
-72.65
 10
-64.4
 20
-72.25
 10
-68.25
 20
-71.85
 10
-71.15
 20
-70.55
 10
-73.35
 20
-70.55
 10
-76.6
 20
-69.7
 10
-77.0
 20
-68.1
 10
-77.6
 20
-67.75
 10
-81.35
 20
-67.0
 10
-86.8
 20
-65.35
 10
-90.45
 20
-64.85
 10
-91.75
 20
-64.35
 10
-93.35
 20
-64.2
 10
-94.75
 20
-64.55
 10
-97.25
 20
-63.9
 10
-101.2
 20
-62.4
 10
-102.85
 20
-62.15
 10
-120.45
 20
-55.15
 10
-134.35
 20
-47.95
 10
-136.3
 20
-46.25
 10
-136.3
 20
-45.2
 10
-137.4
 20
-44.3
 10
-138.8
 20
-44.95
 10
-140.15
 20
-44.5
 10
-147.9
 20
-39.95
 10
-150.65
 20
-38.9
 10
-154.0
 20
-36.35
 10
-154.35
 20
-33.75
 10
-156.3
 20
-31.25
 10
-158.85
 20
-33.15
 10
-165.1
 20
-33.15
 10
-166.65
 20
-32.1
 10
-169.7
 20
-30.75
 10
-173.75
 20
-28.15
 10
-174.9
 20
-26.9
 10
-175.2
 20
-24.95
 10
-174.9
 20
-23.5
 10
-173.25
 20
-21.05
 10
-178.6
 20
-15.5
 10
-183.5
 20
-9.7
 10
-184.5
 20
-8.9
 10
-185.4
 20
-9.15
 10
-185.9
 20
-8.85
 10
-186.4
 20
-7.1
 10
-186.35
 20
-5.8
 10
-189.35
 20
-1.2
 10
-191.0
 20
1.95
 10
-195.7
 20
14.0
 10
-198.1
 20
17.9
 10
-199.9
 20
22.9
  0
ENDSEC
  0
SECTION
  2
OBJECTS
  0
DICTIONARY
  5
A
330
0
100
AcDbDictionary
281
1
  3
ACAD_COLOR
350
B
  3
ACAD_GROUP
350
C
  3
ACAD_LAYOUT
350
D
  3
ACAD_MATERIAL
350
E
  3
ACAD_MLEADERSTYLE
350
F
  3
ACAD_MLINESTYLE
350
10
  3
ACAD_PLOTSETTINGS
350
11
  3
ACAD_PLOTSTYLENAME
350
12
  3
ACAD_SCALELIST
350
14
  3
ACAD_TABLESTYLE
350
15
  3
ACAD_VISUALSTYLE
350
16
  3
EZDXF_META
350
2D
  0
DICTIONARY
  5
B
330
A
100
AcDbDictionary
281
1
  0
DICTIONARY
  5
C
330
A
100
AcDbDictionary
281
1
  0
DICTIONARY
  5
D
330
A
100
AcDbDictionary
281
1
  3
Model
350
1A
  3
Layout1
350
1E
  0
DICTIONARY
  5
E
330
A
100
AcDbDictionary
281
1
  3
ByBlock
350
1F
  3
ByLayer
350
20
  3
Global
350
21
  0
DICTIONARY
  5
F
330
A
100
AcDbDictionary
281
1
  3
Standard
350
2C
  0
DICTIONARY
  5
10
330
A
100
AcDbDictionary
281
1
  3
Standard
350
22
  0
DICTIONARY
  5
11
330
A
100
AcDbDictionary
281
1
  0
ACDBDICTIONARYWDFLT
  5
12
330
A
100
AcDbDictionary
281
1
  3
Normal
350
13
100
AcDbDictionaryWithDefault
340
13
  0
ACDBPLACEHOLDER
  5
13
330
12
  0
DICTIONARY
  5
14
330
A
100
AcDbDictionary
281
1
  0
DICTIONARY
  5
15
330
A
100
AcDbDictionary
281
1
  0
DICTIONARY
  5
16
330
A
100
AcDbDictionary
281
1
  0
LAYOUT
  5
1A
330
D
100
AcDbPlotSettings
  1

  4
A3
  6

 40
7.5
 41
20.0
 42
7.5
 43
20.0
 44
420.0
 45
297.0
 46
0.0
 47
0.0
 48
0.0
 49
0.0
140
0.0
141
0.0
142
1.0
143
1.0
 70
1024
 72
1
 73
0
 74
5
  7

 75
16
 76
0
 77
2
 78
300
147
1.0
148
0.0
149
0.0
100
AcDbLayout
  1
Model
 70
1
 71
0
 10
0.0
 20
0.0
 11
420.0
 21
297.0
 12
0.0
 22
0.0
 32
0.0
 14
1e+20
 24
1e+20
 34
1e+20
 15
-1e+20
 25
-1e+20
 35
-1e+20
146
0.0
 13
0.0
 23
0.0
 33
0.0
 16
1.0
 26
0.0
 36
0.0
 17
0.0
 27
1.0
 37
0.0
 76
1
330
17
  0
LAYOUT
  5
1E
330
D
100
AcDbPlotSettings
  1

  4
A3
  6

 40
7.5
 41
20.0
 42
7.5
 43
20.0
 44
420.0
 45
297.0
 46
0.0
 47
0.0
 48
0.0
 49
0.0
140
0.0
141
0.0
142
1.0
143
1.0
 70
0
 72
1
 73
0
 74
5
  7

 75
16
 76
0
 77
2
 78
300
147
1.0
148
0.0
149
0.0
100
AcDbLayout
  1
Layout1
 70
1
 71
1
 10
0.0
 20
0.0
 11
420.0
 21
297.0
 12
0.0
 22
0.0
 32
0.0
 14
1e+20
 24
1e+20
 34
1e+20
 15
-1e+20
 25
-1e+20
 35
-1e+20
146
0.0
 13
0.0
 23
0.0
 33
0.0
 16
1.0
 26
0.0
 36
0.0
 17
0.0
 27
1.0
 37
0.0
 76
1
330
1B
  0
MATERIAL
  5
1F
102
{ACAD_REACTORS
330
E
102
}
330
E
100
AcDbMaterial
  1
ByBlock
  2

 70
0
 40
1.0
 71
1
 41
1.0
 91
-1023410177
 42
1.0
 72
1
  3

 73
1
 74
1
 75
1
 44
0.5
 73
0
 45
1.0
 46
1.0
 77
1
  4

 78
1
 79
1
170
1
 48
1.0
171
1
  6

172
1
173
1
174
1
140
1.0
141
1.0
175
1
  7

176
1
177
1
178
1
143
1.0
179
1
  8

270
1
271
1
272
1
145
1.0
146
1.0
273
1
  9

274
1
275
1
276
1
 42
1.0
 72
1
  3

 73
1
 74
1
 75
1
 94
63
  0
MATERIAL
  5
20
102
{ACAD_REACTORS
330
E
102
}
330
E
100
AcDbMaterial
  1
ByLayer
  2

 70
0
 40
1.0
 71
1
 41
1.0
 91
-1023410177
 42
1.0
 72
1
  3

 73
1
 74
1
 75
1
 44
0.5
 73
0
 45
1.0
 46
1.0
 77
1
  4

 78
1
 79
1
170
1
 48
1.0
171
1
  6

172
1
173
1
174
1
140
1.0
141
1.0
175
1
  7

176
1
177
1
178
1
143
1.0
179
1
  8

270
1
271
1
272
1
145
1.0
146
1.0
273
1
  9

274
1
275
1
276
1
 42
1.0
 72
1
  3

 73
1
 74
1
 75
1
 94
63
  0
MATERIAL
  5
21
102
{ACAD_REACTORS
330
E
102
}
330
E
100
AcDbMaterial
  1
Global
  2

 70
0
 40
1.0
 71
1
 41
1.0
 91
-1023410177
 42
1.0
 72
1
  3

 73
1
 74
1
 75
1
 44
0.5
 73
0
 45
1.0
 46
1.0
 77
1
  4

 78
1
 79
1
170
1
 48
1.0
171
1
  6

172
1
173
1
174
1
140
1.0
141
1.0
175
1
  7

176
1
177
1
178
1
143
1.0
179
1
  8

270
1
271
1
272
1
145
1.0
146
1.0
273
1
  9

274
1
275
1
276
1
 42
1.0
 72
1
  3

 73
1
 74
1
 75
1
 94
63
  0
MLINESTYLE
  5
22
102
{ACAD_REACTORS
330
10
102
}
330
10
100
AcDbMlineStyle
  2
Standard
 70
0
  3

 62
256
 51
90.0
 52
90.0
 71
2
 49
0.5
 62
256
  6
BYLAYER
 49
-0.5
 62
256
  6
BYLAYER
  0
MLEADERSTYLE
  5
2C
102
{ACAD_REACTORS
330
F
102
}
330
F
100
AcDbMLeaderStyle
179
2
170
2
171
1
172
0
 90
2
 40
0.0
 41
0.0
173
1
 91
-1056964608
 92
-2
290
1
 42
2.0
291
1
 43
8.0
  3
Standard
 44
4.0
300

342
29
174
1
175
1
176
0
178
1
 93
-1056964608
 45
4.0
292
0
297
0
 46
4.0
 94
-1056964608
 47
1.0
 49
1.0
140
1.0
294
1
141
0.0
177
0
142
1.0
295
0
296
0
143
3.75
271
0
272
9
273
9
  0
DICTIONARY
  5
2D
330
A
100
AcDbDictionary
280
1
281
1
  3
CREATED_BY_EZDXF
350
2E
  3
WRITTEN_BY_EZDXF
350
36
  0
DICTIONARYVAR
  5
2E
330
2D
100
DictionaryVariables
280
0
  1
1.4.2 @ 2026-09-25T06:02:11.309118+00:00
  0
DICTIONARYVAR
  5
36
330
2D
100
DictionaryVariables
280
0
  1
1.4.2 @ 2026-09-25T06:02:11.311583+00:00
  0
ENDSEC
  0
EOF
