  0
SECTION
  2
HEADER
  9
$ACADVER
  1
AC1024
  9
$ACADMAINTVER
 70
6
  9
$DWGCODEPAGE
  3
ANSI_1252
  9
$LASTSAVEDBY
  1
ezdxf
  9
$INSBASE
 10
0.0
 20
0.0
 30
0.0
  9
$EXTMIN
 10
1e+20
 20
1e+20
 30
1e+20
  9
$EXTMAX
 10
-1e+20
 20
-1e+20
 30
-1e+20
  9
$LIMMIN
 10
0.0
 20
0.0
  9
$LIMMAX
 10
420.0
 20
297.0
  9
$ORTHOMODE
 70
0
  9
$REGENMODE
 70
1
  9
$FILLMODE
 70
1
  9
$QTEXTMODE
 70
0
  9
$MIRRTEXT
 70
1
  9
$LTSCALE
 40
1.0
  9
$ATTMODE
 70
1
  9
$TEXTSIZE
 40
2.5
  9
$TRACEWID
 40
1.0
  9
$TEXTSTYLE
  7
Standard
  9
$CLAYER
  8
0
  9
$CELTYPE
  6
ByLayer
  9
$CECOLOR
 62
256
  9
$CELTSCALE
 40
1.0
  9
$DISPSILH
 70
0
  9
$DIMSCALE
 40
1.0
  9
$DIMASZ
 40
2.5
  9
$DIMEXO
 40
0.625
  9
$DIMDLI
 40
3.75
  9
$DIMRND
 40
0.0
  9
$DIMDLE
 40
0.0
  9
$DIMEXE
 40
1.25
  9
$DIMTP
 40
0.0
  9
$DIMTM
 40
0.0
  9
$DIMTXT
 40
2.5
  9
$DIMCEN
 40
2.5
  9
$DIMTSZ
 40
0.0
  9
$DIMTOL
 70
0
  9
$DIMLIM
 70
0
  9
$DIMTIH
 70
0
  9
$DIMTOH
 70
0
  9
$DIMSE1
 70
0
  9
$DIMSE2
 70
0
  9
$DIMTAD
 70
1
  9
$DIMZIN
 70
8
  9
$DIMBLK
  1

  9
$DIMASO
 70
1
  9
$DIMSHO
 70
1
  9
$DIMPOST
  1

  9
$DIMAPOST
  1

  9
$DIMALT
 70
0
  9
$DIMALTD
 70
3
  9
$DIMALTF
 40
0.03937007874
  9
$DIMLFAC
 40
1.0
  9
$DIMTOFL
 70
1
  9
$DIMTVP
 40
0.0
  9
$DIMTIX
 70
0
  9
$DIMSOXD
 70
0
  9
$DIMSAH
 70
0
  9
$DIMBLK1
  1

  9
$DIMBLK2
  1

  9
$DIMSTYLE
  2
ISO-25
  9
$DIMCLRD
 70
0
  9
$DIMCLRE
 70
0
  9
$DIMCLRT
 70
0
  9
$DIMTFAC
 40
1.0
  9
$DIMGAP
 40
0.625
  9
$DIMJUST
 70
0
  9
$DIMSD1
 70
0
  9
$DIMSD2
 70
0
  9
$DIMTOLJ
 70
0
  9
$DIMTZIN
 70
8
  9
$DIMALTZ
 70
0
  9
$DIMALTTZ
 70
0
  9
$DIMUPT
 70
0
  9
$DIMDEC
 70
2
  9
$DIMTDEC
 70
2
  9
$DIMALTU
 70
2
  9
$DIMALTTD
 70
3
  9
$DIMTXSTY
  7
Standard
  9
$DIMAUNIT
 70
0
  9
$DIMADEC
 70
0
  9
$DIMALTRND
 40
0.0
  9
$DIMAZIN
 70
0
  9
$DIMDSEP
 70
44
  9
$DIMATFIT
 70
3
  9
$DIMFRAC
 70
0
  9
$DIMLDRBLK
  1

  9
$DIMLUNIT
 70
2
  9
$DIMLWD
 70
-2
  9
$DIMLWE
 70
-2
  9
$DIMTMOVE
 70
0
  9
$DIMFXL
 40
1.0
  9
$DIMFXLON
 70
0
  9
$DIMJOGANG
 40
0.785398163397
  9
$DIMTFILL
 70
0
  9
$DIMTFILLCLR
 70
0
  9
$DIMARCSYM
 70
0
  9
$DIMLTYPE
  6

  9
$DIMLTEX1
  6

  9
$DIMLTEX2
  6

  9
$DIMTXTDIRECTION
 70
0
  9
$LUNITS
 70
2
  9
$LUPREC
 70
4
  9
$SKETCHINC
 40
1.0
  9
$FILLETRAD
 40
10.0
  9
$AUNITS
 70
0
  9
$AUPREC
 70
2
  9
$MENU
  1
.
  9
$ELEVATION
 40
0.0
  9
$PELEVATION
 40
0.0
  9
$THICKNESS
 40
0.0
  9
$LIMCHECK
 70
0
  9
$CHAMFERA
 40
0.0
  9
$CHAMFERB
 40
0.0
  9
$CHAMFERC
 40
0.0
  9
$CHAMFERD
 40
0.0
  9
$SKPOLY
 70
0
  9
$TDCREATE
 40
2461309.084849537
  9
$TDUCREATE
 40
2458532.153996898
  9
$TDUPDATE
 40
2461309.084849537
  9
$TDUUPDATE
 40
2458532.1544311
  9
$TDINDWG
 40
0.0
  9
$TDUSRTIMER
 40
0.0
  9
$USRTIMER
 70
1
  9
$ANGBASE
 50
0.0
  9
$ANGDIR
 70
0
  9
$PDMODE
 70
0
  9
$PDSIZE
 40
0.0
  9
$PLINEWID
 40
0.0
  9
$SPLFRAME
 70
0
  9
$SPLINETYPE
 70
6
  9
$SPLINESEGS
 70
8
  9
$HANDSEED
  5
5F
  9
$SURFTAB1
 70
6
  9
$SURFTAB2
 70
6
  9
$SURFTYPE
 70
6
  9
$SURFU
 70
6
  9
$SURFV
 70
6
  9
$UCSBASE
  2

  9
$UCSNAME
  2

  9
$UCSORG
 10
0.0
 20
0.0
 30
0.0
  9
$UCSXDIR
 10
1.0
 20
0.0
 30
0.0
  9
$UCSYDIR
 10
0.0
 20
1.0
 30
0.0
  9
$UCSORTHOREF
  2

  9
$UCSORTHOVIEW
 70
0
  9
$UCSORGTOP
 10
0.0
 20
0.0
 30
0.0
  9
$UCSORGBOTTOM
 10
0.0
 20
0.0
 30
0.0
  9
$UCSORGLEFT
 10
0.0
 20
0.0
 30
0.0
  9
$UCSORGRIGHT
 10
0.0
 20
0.0
 30
0.0
  9
$UCSORGFRONT
 10
0.0
 20
0.0
 30
0.0
  9
$UCSORGBACK
 10
0.0
 20
0.0
 30
0.0
  9
$PUCSBASE
  2

  9
$PUCSNAME
  2

  9
$PUCSORG
 10
0.0
 20
0.0
 30
0.0
  9
$PUCSXDIR
 10
1.0
 20
0.0
 30
0.0
  9
$PUCSYDIR
 10
0.0
 20
1.0
 30
0.0
  9
$PUCSORTHOREF
  2

  9
$PUCSORTHOVIEW
 70
0
  9
$PUCSORGTOP
 10
0.0
 20
0.0
 30
0.0
  9
$PUCSORGBOTTOM
 10
0.0
 20
0.0
 30
0.0
  9
$PUCSORGLEFT
 10
0.0
 20
0.0
 30
0.0
  9
$PUCSORGRIGHT
 10
0.0
 20
0.0
 30
0.0
  9
$PUCSORGFRONT
 10
0.0
 20
0.0
 30
0.0
  9
$PUCSORGBACK
 10
0.0
 20
0.0
 30
0.0
  9
$USERI1
 70
0
  9
$USERI2
 70
0
  9
$USERI3
 70
0
  9
$USERI4
 70
0
  9
$USERI5
 70
0
  9
$USERR1
 40
0.0
  9
$USERR2
 40
0.0
  9
$USERR3
 40
0.0
  9
$USERR4
 40
0.0
  9
$USERR5
 40
0.0
  9
$WORLDVIEW
 70
1
  9
$SHADEDGE
 70
3
  9
$SHADEDIF
 70
70
  9
$TILEMODE
 70
1
  9
$MAXACTVP
 70
64
  9
$PINSBASE
 10
0.0
 20
0.0
 30
0.0
  9
$PLIMCHECK
 70
0
  9
$PEXTMIN
 10
1e+20
 20
1e+20
 30
1e+20
  9
$PEXTMAX
 10
-1e+20
 20
-1e+20
 30
-1e+20
  9
$PLIMMIN
 10
0.0
 20
0.0
  9
$PLIMMAX
 10
420.0
 20
297.0
  9
$UNITMODE
 70
0
  9
$VISRETAIN
 70
1
  9
$PLINEGEN
 70
0
  9
$PSLTSCALE
 70
1
  9
$TREEDEPTH
 70
3020
  9
$CMLSTYLE
  2
Standard
  9
$CMLJUST
 70
0
  9
$CMLSCALE
 40
20.0
  9
$PROXYGRAPHICS
 70
1
  9
$MEASUREMENT
 70
1
  9
$CELWEIGHT
370
-1
  9
$ENDCAPS
280
0
  9
$JOINSTYLE
280
0
  9
$LWDISPLAY
290
0
  9
$INSUNITS
 70
4
  9
$HYPERLINKBASE
  1

  9
$STYLESHEET
  1

  9
$XEDIT
290
1
  9
$CEPSNTYPE
380
0
  9
$PSTYLEMODE
290
1
  9
$FINGERPRINTGUID
  2
{ACDD6998-7389-4187-BB46-EBF2987C82C2}
  9
$VERSIONGUID
  2
{C54EA72C-1CC9-4A16-AC44-44995458B3E7}
  9
$EXTNAMES
290
1
  9
$PSVPSCALE
 40
0.0
  9
$OLESTARTUP
290
0
  9
$SORTENTS
280
127
  9
$INDEXCTL
280
0
  9
$HIDETEXT
280
1
  9
$XCLIPFRAME
280
1
  9
$HALOGAP
280
0
  9
$OBSCOLOR
 70
257
  9
$OBSLTYPE
280
0
  9
$INTERSECTIONDISPLAY
280
0
  9
$INTERSECTIONCOLOR
 70
257
  9
$DIMASSOC
280
2
  9
$PROJECTNAME
  1

  9
$CAMERADISPLAY
290
0
  9
$LENSLENGTH
 40
50.0
  9
$CAMERAHEIGHT
 40
0.0
  9
$STEPSPERSEC
 40
24.0
  9
$STEPSIZE
 40
100.0
  9
$3DDWFPREC
 40
2.0
  9
$PSOLWIDTH
 40
0.005
  9
$PSOLHEIGHT
 40
0.08
  9
$LOFTANG1
 40
1.570796326795
  9
$LOFTANG2
 40
1.570796326795
  9
$LOFTMAG1
 40
0.0
  9
$LOFTMAG2
 40
0.0
  9
$LOFTPARAM
 70
7
  9
$LOFTNORMALS
280
1
  9
$LATITUDE
 40
37.795
  9
$LONGITUDE
 40
-122.394
  9
$NORTHDIRECTION
 40
0.0
  9
$TIMEZONE
 70
-8000
  9
$LIGHTGLYPHDISPLAY
280
1
  9
$TILEMODELIGHTSYNCH
280
1
  9
$CMATERIAL
347
20
  9
$SOLIDHIST
280
0
  9
$SHOWHIST
280
1
  9
$DWFFRAME
280
2
  9
$DGNFRAME
280
2
  9
$REALWORLDSCALE
290
1
  9
$INTERFERECOLOR
 62
256
  9
$CSHADOW
280
0
  9
$SHADOWPLANELOCATION
 40
0.0
  0
ENDSEC
  0
SECTION
  2
CLASSES
  0
CLASS
  1
ACDBDICTIONARYWDFLT
  2
AcDbDictionaryWithDefault
  3
ObjectDBX Classes
 90
0
 91
0
280
0
281
0
  0
CLASS
  1
SUN
  2
AcDbSun
  3
SCENEOE
 90
1153
 91
0
280
0
281
0
  0
CLASS
  1
VISUALSTYLE
  2
AcDbVisualStyle
  3
ObjectDBX Classes
 90
4095
 91
0
280
0
281
0
  0
CLASS
  1
MATERIAL
  2
AcDbMaterial
  3
ObjectDBX Classes
 90
1153
 91
0
280
0
281
0
  0
CLASS
  1
SCALE
  2
AcDbScale
  3
ObjectDBX Classes
 90
1153
 91
0
280
0
281
0
  0
CLASS
  1
TABLESTYLE
  2
AcDbTableStyle
  3
ObjectDBX Classes
 90
4095
 91
0
280
0
281
0
  0
CLASS
  1
MLEADERSTYLE
  2
AcDbMLeaderStyle
  3
ACDB_MLEADERSTYLE_CLASS
 90
4095
 91
0
280
0
281
0
  0
CLASS
  1
DICTIONARYVAR
  2
AcDbDictionaryVar
  3
ObjectDBX Classes
 90
0
 91
0
280
0
281
0
  0
CLASS
  1
CELLSTYLEMAP
  2
AcDbCellStyleMap
  3
ObjectDBX Classes
 90
1152
 91
0
280
0
281
0
  0
CLASS
  1
MENTALRAYRENDERSETTINGS
  2
AcDbMentalRayRenderSettings
  3
SCENEOE
 90
1024
 91
0
280
0
281
0
  0
CLASS
  1
ACDBDETAILVIEWSTYLE
  2
AcDbDetailViewStyle
  3
ObjectDBX Classes
 90
1025
 91
0
280
0
281
0
  0
CLASS
  1
ACDBSECTIONVIEWSTYLE
  2
AcDbSectionViewStyle
  3
ObjectDBX Classes
 90
1025
 91
0
280
0
281
0
  0
CLASS
  1
RASTERVARIABLES
  2
AcDbRasterVariables
  3
ISM
 90
0
 91
0
280
0
281
0
  0
CLASS
  1
LAYOUT
  2
AcDbLayout
  3
ObjectDBX Classes
 90
0
 91
0
280
0
281
0
  0
CLASS
  1
ACDBPLACEHOLDER
  2
AcDbPlaceHolder
  3
ObjectDBX Classes
 90
0
 91
0
280
0
281
0
  0
ENDSEC
  0
SECTION
  2
TABLES
  0
TABLE
  2
VPORT
  5
8
330
0
100
AcDbSymbolTable
 70
1
  0
VPORT
  5
23
330
8
100
AcDbSymbolTableRecord
100
AcDbViewportTableRecord
  2
*Active
 70
0
 10
0.0
 20
0.0
 11
1.0
 21
1.0
 12
0.0
 22
0.0
 13
0.0
 23
0.0
 14
0.5
 24
0.5
 15
0.5
 25
0.5
 16
0.0
 26
0.0
 36
1.0
 17
0.0
 27
0.0
 37
0.0
 40
1000.0
 41
1.34
 42
50.0
 43
0.0
 44
0.0
 50
0.0
 51
0.0
 71
0
 72
1000
 73
1
 74
3
 75
0
 76
0
 77
0
 78
0
281
0
 65
0
146
0.0
  0
ENDTAB
  0
TABLE
  2
LTYPE
  5
2
330
0
100
AcDbSymbolTable
 70
3
  0
LTYPE
  5
24
330
2
100
AcDbSymbolTableRecord
100
AcDbLinetypeTableRecord
  2
ByBlock
 70
0
  3

 72
65
 73
0
 40
0.0
  0
LTYPE
  5
25
330
2
100
AcDbSymbolTableRecord
100
AcDbLinetypeTableRecord
  2
ByLayer
 70
0
  3

 72
65
 73
0
 40
0.0
  0
LTYPE
  5
26
330
2
100
AcDbSymbolTableRecord
100
AcDbLinetypeTableRecord
  2
Continuous
 70
0
  3

 72
65
 73
0
 40
0.0
  0
ENDTAB
  0
TABLE
  2
LAYER
  5
1
330
0
100
AcDbSymbolTable
 70
6
  0
LAYER
  5
27
330
1
100
AcDbSymbolTableRecord
100
AcDbLayerTableRecord
  2
0
 70
0
 62
7
  6
Continuous
370
-3
390
13
347
21
  0
LAYER
  5
28
330
1
100
AcDbSymbolTableRecord
100
AcDbLayerTableRecord
  2
Defpoints
 70
0
 62
7
  6
Continuous
290
0
370
-3
390
13
347
21
  0
LAYER
  5
2F
330
1
100
AcDbSymbolTableRecord
100
AcDbLayerTableRecord
  2
CASE_OUTLINE
 70
0
 62
7
  6
Continuous
370
-3
390
13
347
21
  0
LAYER
  5
30
330
1
100
AcDbSymbolTableRecord
100
AcDbLayerTableRecord
  2
HOLE_CENTERS
 70
0
 62
1
  6
Continuous
370
-3
390
13
347
21
  0
LAYER
  5
31
330
1
100
AcDbSymbolTableRecord
100
AcDbLayerTableRecord
  2
SCANNED_OPENINGS
 70
0
 62
3
  6
Continuous
370
-3
390
13
347
21
  0
LAYER
  5
32
330
1
100
AcDbSymbolTableRecord
100
AcDbLayerTableRecord
  2
LABELS
 70
0
 62
2
  6
Continuous
370
-3
390
13
347
21
  0
ENDTAB
  0
TABLE
  2
STYLE
  5
5
330
0
100
AcDbSymbolTable
 70
1
  0
STYLE
  5
29
330
5
100
AcDbSymbolTableRecord
100
AcDbTextStyleTableRecord
  2
Standard
 70
0
 40
0.0
 41
1.0
 50
0.0
 71
0
 42
2.5
  3
txt
  4

  0
ENDTAB
  0
TABLE
  2
VIEW
  5
7
330
0
100
AcDbSymbolTable
 70
0
  0
ENDTAB
  0
TABLE
  2
UCS
  5
6
330
0
100
AcDbSymbolTable
 70
0
  0
ENDTAB
  0
TABLE
  2
APPID
  5
3
330
0
100
AcDbSymbolTable
 70
3
  0
APPID
  5
2A
330
3
100
AcDbSymbolTableRecord
100
AcDbRegAppTableRecord
  2
ACAD
 70
0
  0
APPID
  5
5C
330
3
100
AcDbSymbolTableRecord
100
AcDbRegAppTableRecord
  2
HATCHBACKGROUNDCOLOR
 70
0
  0
APPID
  5
5D
330
3
100
AcDbSymbolTableRecord
100
AcDbRegAppTableRecord
  2
EZDXF
 70
0
  0
ENDTAB
  0
TABLE
  2
DIMSTYLE
  5
4
330
0
100
AcDbSymbolTable
 70
1
100
AcDbDimStyleTable
  0
DIMSTYLE
105
2B
330
4
100
AcDbSymbolTableRecord
100
AcDbDimStyleTableRecord
  2
Standard
 70
0
 40
1.0
 41
2.5
 42
0.625
 43
3.75
 44
1.25
 45
0.0
 46
0.0
 47
0.0
 48
0.0
 49
2.5
140
2.5
141
2.5
142
0.0
143
0.03937007874
144
1.0
145
0.0
146
1.0
147
0.625
148
0.0
 69
0
 70
0
 71
0
 72
0
 73
0
 74
0
 75
0
 76
0
 77
1
 78
8
 79
3
170
0
171
3
172
1
173
0
174
0
175
0
176
0
177
0
178
0
179
2
271
2
272
2
273
2
274
3
275
0
276
0
277
2
278
44
279
0
280
0
281
0
282
0
283
0
284
8
285
0
286
0
288
0
289
3
290
0
371
-2
372
-2
  0
ENDTAB
  0
TABLE
  2
BLOCK_RECORD
  5
9
330
0
100
AcDbSymbolTable
 70
2
  0
BLOCK_RECORD
  5
17
330
9
100
AcDbSymbolTableRecord
100
AcDbBlockTableRecord
  2
*Model_Space
340
1A
 70
0
280
1
281
0
  0
BLOCK_RECORD
  5
1B
330
9
100
AcDbSymbolTableRecord
100
AcDbBlockTableRecord
  2
*Paper_Space
340
1E
 70
0
280
1
281
0
  0
ENDTAB
  0
ENDSEC
  0
SECTION
  2
BLOCKS
  0
BLOCK
  5
18
330
17
100
AcDbEntity
  8
0
100
AcDbBlockBegin
  2
*Model_Space
 70
0
 10
0.0
 20
0.0
 30
0.0
  3
*Model_Space
  1

  0
ENDBLK
  5
19
330
17
100
AcDbEntity
  8
0
100
AcDbBlockEnd
  0
BLOCK
  5
1C
330
1B
100
AcDbEntity
  8
0
100
AcDbBlockBegin
  2
*Paper_Space
 70
0
 10
0.0
 20
0.0
 30
0.0
  3
*Paper_Space
  1

  0
ENDBLK
  5
1D
330
1B
100
AcDbEntity
  8
0
100
AcDbBlockEnd
  0
ENDSEC
  0
SECTION
  2
ENTITIES
  0
LWPOLYLINE
  5
33
330
17
100
AcDbEntity
  8
CASE_OUTLINE
100
AcDbPolyline
 90
341
 70
1
 10
-203.3
 20
30.2
 10
-204.2
 20
35.1
 10
-205.05
 20
37.8
 10
-205.0
 20
39.5
 10
-206.1
 20
42.35
 10
-206.2
 20
44.35
 10
-206.65
 20
45.95
 10
-206.3
 20
45.95
 10
-206.25
 20
46.8
 10
-206.55
 20
50.05
 10
-206.2
 20
50.85
 10
-206.4
 20
52.8
 10
-206.0
 20
55.7
 10
-205.45
 20
57.25
 10
-205.6
 20
59.8
 10
-205.2
 20
61.4
 10
-204.8
 20
61.4
 10
-204.6
 20
63.1
 10
-203.3
 20
65.1
 10
-201.95
 20
68.75
 10
-195.5
 20
76.0
 10
-189.05
 20
80.0
 10
-184.25
 20
81.7
 10
-182.1
 20
83.05
 10
-181.85
 20
84.95
 10
-181.25
 20
86.2
 10
-176.5
 20
86.3
 10
-175.95
 20
86.05
 10
-171.8
 20
86.4
 10
-163.85
 20
86.15
 10
-162.9
 20
85.45
 10
-162.75
 20
84.95
 10
-161.7
 20
84.65
 10
-160.85
 20
87.9
 10
-159.25
 20
89.95
 10
-157.75
 20
91.0
 10
-156.0
 20
91.65
 10
-152.95
 20
92.05
 10
-130.8
 20
91.7
 10
-128.25
 20
91.0
 10
-126.4
 20
89.7
 10
-125.2
 20
88.35
 10
-124.45
 20
84.65
 10
-118.1
 20
83.55
 10
-116.05
 20
82.65
 10
-114.25
 20
81.7
 10
-113.35
 20
80.75
 10
-111.85
 20
80.2
 10
-111.25
 20
79.45
 10
-110.6
 20
79.25
 10
-107.9
 20
77.05
 10
-107.05
 20
76.9
 10
-105.45
 20
75.75
 10
-104.8
 20
75.65
 10
-103.8
 20
74.4
 10
-99.55
 20
71.9
 10
-97.35
 20
71.55
 10
-95.55
 20
70.65
 10
-93.7
 20
70.85
 10
-91.25
 20
70.15
 10
-87.0
 20
70.75
 10
-80.25
 20
70.0
 10
-79.25
 20
72.05
 10
-78.4
 20
72.7
 10
-64.15
 20
72.9
 10
-62.55
 20
71.95
 10
-61.85
 20
70.45
 10
-61.35
 20
70.05
 10
-59.55
 20
70.3
 10
-58.8
 20
70.05
 10
-47.8
 20
69.85
 10
-44.9
 20
70.55
 10
-41.55
 20
69.8
 10
-33.25
 20
70.05
 10
-23.45
 20
69.6
 10
-20.75
 20
70.0
 10
-19.5
 20
69.75
 10
-15.85
 20
69.85
 10
-13.45
 20
69.35
 10
-12.35
 20
69.7
 10
-7.25
 20
69.75
 10
-2.95
 20
69.1
 10
-0.7
 20
69.65
 10
1.6
 20
69.2
 10
9.6
 20
69.25
 10
10.6
 20
69.5
 10
15.85
 20
69.3
 10
18.8
 20
69.7
 10
25.3
 20
69.45
 10
27.55
 20
69.75
 10
29.45
 20
69.3
 10
30.9
 20
69.8
 10
33.45
 20
69.8
 10
45.2
 20
69.15
 10
48.8
 20
69.65
 10
51.8
 20
69.4
 10
52.6
 20
68.75
 10
53.35
 20
70.8
 10
54.65
 20
71.8
 10
55.6
 20
72.0
 10
56.75
 20
71.7
 10
57.65
 20
71.9
 10
62.9
 20
71.7
 10
64.55
 20
72.15
 10
68.65
 20
71.85
 10
69.95
 20
71.25
 10
71.5
 20
69.0
 10
72.3
 20
69.5
 10
73.45
 20
69.5
 10
79.8
 20
71.55
 10
88.9
 20
77.85
 10
95.85
 20
81.25
 10
98.4
 20
81.75
 10
99.9
 20
82.5
 10
100.15
 20
82.2
 10
102.35
 20
82.85
 10
107.4
 20
82.35
 10
108.7
 20
82.6
 10
108.55
 20
83.35
 10
109.0
 20
83.8
 10
109.6
 20
86.25
 10
111.7
 20
88.65
 10
114.4
 20
90.15
 10
115.8
 20
90.45
 10
140.75
 20
90.35
 10
142.85
 20
89.3
 10
145.75
 20
86.7
 10
146.8
 20
84.15
 10
146.8
 20
81.7
 10
147.85
 20
81.7
 10
147.85
 20
82.2
 10
148.65
 20
82.2
 10
148.65
 20
81.95
 10
149.4
 20
81.7
 10
150.25
 20
81.95
 10
153.4
 20
81.55
 10
154.6
 20
83.7
 10
156.4
 20
84.5
 10
172.15
 20
84.3
 10
173.35
 20
83.45
 10
173.7
 20
82.5
 10
173.8
 20
79.25
 10
174.65
 20
79.3
 10
174.4
 20
80.1
 10
175.0
 20
79.35
 10
175.45
 20
79.35
 10
175.45
 20
79.7
 10
175.75
 20
79.3
 10
176.95
 20
79.25
 10
177.0
 20
78.95
 10
183.15
 20
75.65
 10
186.15
 20
73.55
 10
187.95
 20
71.95
 10
186.0
 20
73.0
 10
186.0
 20
72.75
 10
186.8
 20
71.95
 10
187.6
 20
71.95
 10
187.6
 20
71.15
 10
188.45
 20
71.15
 10
190.05
 20
69.5
 10
190.6
 20
67.95
 10
191.7
 20
66.85
 10
191.65
 20
66.25
 10
193.3
 20
64.7
 10
193.3
 20
62.55
 10
195.25
 20
61.45
 10
194.95
 20
59.8
 10
195.75
 20
59.8
 10
195.75
 20
58.25
 10
196.55
 20
56.3
 10
196.55
 20
54.1
 10
197.35
 20
53.4
 10
197.4
 20
47.35
 10
197.9
 20
45.95
 10
197.35
 20
45.15
 10
197.35
 20
42.75
 10
196.55
 20
42.75
 10
196.55
 20
41.95
 10
197.35
 20
41.1
 10
197.35
 20
40.3
 10
196.55
 20
40.3
 10
196.45
 20
38.2
 10
196.0
 20
36.95
 10
196.2
 20
35.4
 10
195.75
 20
34.6
 10
194.95
 20
34.6
 10
194.95
 20
33.8
 10
195.5
 20
33.0
 10
194.95
 20
33.0
 10
194.95
 20
32.15
 10
194.3
 20
32.2
 10
194.2
 20
30.95
 10
194.55
 20
30.55
 10
193.7
 20
28.1
 10
193.3
 20
27.3
 10
193.0
 20
27.3
 10
191.7
 20
23.95
 10
191.7
 20
23.25
 10
191.4
 20
23.25
 10
188.25
 20
15.15
 10
186.0
 20
11.05
 10
185.75
 20
11.05
 10
185.2
 20
9.45
 10
182.85
 20
6.25
 10
178.95
 20
-2.1
 10
173.3
 20
-10.85
 10
172.15
 20
-11.9
 10
170.45
 20
-14.3
 10
164.8
 20
-20.05
 10
163.6
 20
-23.85
 10
157.3
 20
-28.7
 10
153.45
 20
-30.65
 10
152.35
 20
-30.45
 10
150.7
 20
-29.15
 10
148.35
 20
-26.05
 10
145.25
 20
-27.9
 10
143.7
 20
-29.2
 10
143.4
 20
-32.7
 10
142.3
 20
-35.75
 10
142.0
 20
-38.05
 10
141.8
 20
-38.65
 10
140.05
 20
-40.35
 10
129.3
 20
-46.4
 10
127.95
 20
-46.7
 10
126.4
 20
-45.85
 10
125.05
 20
-47.15
 10
124.8
 20
-48.65
 10
123.8
 20
-49.35
 10
120.15
 20
-50.9
 10
118.05
 20
-52.35
 10
114.6
 20
-53.6
 10
108.25
 20
-57.35
 10
105.9
 20
-57.55
 10
94.75
 20
-62.05
 10
94.4
 20
-64.1
 10
93.55
 20
-64.35
 10
92.85
 20
-63.3
 10
92.2
 20
-62.95
 10
82.65
 20
-65.7
 10
81.3
 20
-65.05
 10
79.95
 20
-67.05
 10
78.85
 20
-67.6
 10
74.95
 20
-68.95
 10
66.3
 20
-71.05
 10
64.7
 20
-71.75
 10
64.35
 20
-72.85
 10
63.35
 20
-73.4
 10
49.65
 20
-76.15
 10
48.75
 20
-76.75
 10
48.5
 20
-77.75
 10
47.95
 20
-78.3
 10
47.35
 20
-78.15
 10
46.75
 20
-76.9
 10
46.1
 20
-76.75
 10
30.65
 20
-78.65
 10
14.6
 20
-79.95
 10
12.9
 20
-80.4
 10
12.3
 20
-81.6
 10
11.5
 20
-81.45
 10
10.55
 20
-80.25
 10
9.7
 20
-80.1
 10
3.65
 20
-80.15
 10
3.2
 20
-79.1
 10
3.2
 20
-77.4
 10
2.8
 20
-76.8
 10
2.6
 20
-74.25
 10
-1.45
 20
-74.2
 10
-2.55
 20
-74.55
 10
-3.1
 20
-74.25
 10
-6.45
 20
-74.6
 10
-8.75
 20
-74.45
 10
-9.55
 20
-74.7
 10
-10.1
 20
-74.4
 10
-10.7
 20
-74.65
 10
-13.7
 20
-74.4
 10
-14.2
 20
-74.05
 10
-14.45
 20
-76.6
 10
-15.55
 20
-77.35
 10
-21.8
 20
-77.15
 10
-22.7
 20
-77.4
 10
-23.75
 20
-78.5
 10
-24.35
 20
-78.3
 10
-25.5
 20
-77.0
 10
-42.85
 20
-75.55
 10
-47.95
 20
-74.65
 10
-51.9
 20
-74.5
 10
-58.0
 20
-73.5
 10
-58.9
 20
-73.8
 10
-59.4
 20
-74.8
 10
-60.0
 20
-74.9
 10
-61.35
 20
-73.0
 10
-63.75
 20
-72.65
 10
-64.4
 20
-72.25
 10
-68.25
 20
-71.85
 10
-71.15
 20
-70.55
 10
-73.35
 20
-70.55
 10
-76.6
 20
-69.7
 10
-77.0
 20
-68.1
 10
-77.6
 20
-67.75
 10
-81.35
 20
-67.0
 10
-86.8
 20
-65.35
 10
-90.45
 20
-64.85
 10
-91.75
 20
-64.35
 10
-93.35
 20
-64.2
 10
-94.75
 20
-64.55
 10
-97.25
 20
-63.9
 10
-101.2
 20
-62.4
 10
-102.85
 20
-62.15
 10
-120.45
 20
-55.15
 10
-134.35
 20
-47.95
 10
-136.3
 20
-46.25
 10
-136.3
 20
-45.2
 10
-137.4
 20
-44.3
 10
-138.8
 20
-44.95
 10
-140.15
 20
-44.5
 10
-147.9
 20
-39.95
 10
-150.65
 20
-38.9
 10
-154.0
 20
-36.35
 10
-154.35
 20
-33.75
 10
-156.3
 20
-31.25
 10
-158.85
 20
-33.15
 10
-165.1
 20
-33.15
 10
-166.65
 20
-32.1
 10
-169.7
 20
-30.75
 10
-173.75
 20
-28.15
 10
-174.9
 20
-26.9
 10
-175.2
 20
-24.95
 10
-174.9
 20
-23.5
 10
-173.25
 20
-21.05
 10
-178.6
 20
-15.5
 10
-183.5
 20
-9.7
 10
-184.5
 20
-8.9
 10
-185.4
 20
-9.15
 10
-185.9
 20
-8.85
 10
-186.4
 20
-7.1
 10
-186.35
 20
-5.8
 10
-189.35
 20
-1.2
 10
-191.0
 20
1.95
 10
-195.7
 20
14.0
 10
-198.1
 20
17.9
 10
-199.9
 20
22.9
  0
LWPOLYLINE
  5
34
330
17
100
AcDbEntity
  8
SCANNED_OPENINGS
100
AcDbPolyline
 90
96
 70
1
 10
-163.8835904701904
 20
-26.82595243390756
 10
-163.8907883465271
 20
-26.628145805911636
 10
-163.91235115312574
 20
-26.430175125190758
 10
-163.94818655473804
 20
-26.23288813259278
 10
-163.9981410986728
 20
-26.037129641308066
 10
-164.06200087190365
 20
-25.84373791924968
 10
-164.13949241707778
 20
-25.653541099461513
 10
-164.23028390350194
 20
-25.467353633925452
 10
-164.33398654809278
 20
-25.285972805952934
 10
-164.4501562802054
 20
-25.110175316095432
 10
-164.5782956432122
 20
-24.940713956193438
 10
-164.71785592468845
 20
-24.778314385806233
 10
-164.86823950608323
 20
-24.623672024826252
 10
-165.02880242181368
 20
-24.477449075584335
 10
-165.19885711682457
 20
-24.340271687197696
 10
-165.37767539080457
 20
-24.21272727430326
 10
-165.56449151645185
 20
-24.095362001658014
 10
-165.75850551843587
 20
-23.988678445377673
 10
-165.9588865990145
 20
-23.89313344082858
 10
-166.1647766956377
 20
-23.80913612638856
 10
-166.3752941553029
 20
-23.737046191453544
 10
-166.58953750992853
 20
-23.677172336192367
 10
-166.80658933657892
 20
-23.629770949645263
 10
-167.02552018600989
 20
-23.595045011826617
 10
-167.24539256271333
 20
-23.573143224533396
 10
-167.46526493941678
 20
-23.564159374581212
 10
-167.68419578884775
 20
-23.56813193219478
 10
-167.90124761549814
 20
-23.58504388627253
 10
-168.11549097012377
 20
-23.614822817230724
 10
-168.32600842978897
 20
-23.65734120711526
 10
-168.53189852641216
 20
-23.7124169856531
 10
-168.7322796069908
 20
-23.77981430990517
 10
-168.92629360897482
 20
-23.85924457418199
 10
-169.1131097346221
 20
-23.950367645897572
 10
-169.2919280086021
 20
-24.05279332206936
 10
-169.461982703613
 20
-24.166083000227314
 10
-169.62254561934344
 20
-24.289751556577013
 10
-169.77292920073822
 20
-24.423269423374222
 10
-169.91248948221448
 20
-24.56606485661528
 10
-170.04062884522128
 20
-24.7175263843327
 10
-170.1567985773339
 20
-24.877005425011998
 10
-170.26050122192473
 20
-25.04381906491731
 10
-170.3512927083489
 20
-25.21725298243288
 10
-170.42878425352302
 20
-25.396564506897832
 10
-170.49264402675388
 20
-25.580985798836007
 10
-170.54259857068863
 20
-25.769727137962455
 10
-170.57843397230093
 20
-25.96198030488694
 10
-170.59999677889957
 20
-26.156922042033443
 10
-170.60719465523627
 20
-26.35371757895551
 10
-170.59999677889957
 20
-26.551524206951434
 10
-170.57843397230093
 20
-26.749494887672313
 10
-170.54259857068863
 20
-26.946781880270287
 10
-170.49264402675388
 20
-27.142540371555004
 10
-170.42878425352302
 20
-27.33593209361339
 10
-170.3512927083489
 20
-27.526128913401553
 10
-170.26050122192473
 20
-27.71231637893762
 10
-170.1567985773339
 20
-27.893697206910137
 10
-170.04062884522128
 20
-28.069494696767638
 10
-169.91248948221448
 20
-28.238956056669632
 10
-169.77292920073822
 20
-28.401355627056837
 10
-169.62254561934344
 20
-28.555997988036818
 10
-169.461982703613
 20
-28.702220937278735
 10
-169.2919280086021
 20
-28.839398325665375
 10
-169.1131097346221
 20
-28.96694273855981
 10
-168.92629360897482
 20
-29.084308011205056
 10
-168.7322796069908
 20
-29.190991567485398
 10
-168.53189852641216
 20
-29.286536572034485
 10
-168.32600842978897
 20
-29.37053388647451
 10
-168.11549097012377
 20
-29.442623821409526
 10
-167.90124761549814
 20
-29.502497676670703
 10
-167.68419578884775
 20
-29.549899063217808
 10
-167.46526493941678
 20
-29.584625001036454
 10
-167.24539256271333
 20
-29.606526788329674
 10
-167.02552018600989
 20
-29.61551063828186
 10
-166.80658933657892
 20
-29.61153808066829
 10
-166.58953750992853
 20
-29.59462612659054
 10
-166.3752941553029
 20
-29.564847195632346
 10
-166.1647766956377
 20
-29.52232880574781
 10
-165.9588865990145
 20
-29.46725302720997
 10
-165.75850551843587
 20
-29.3998557029579
 10
-165.56449151645185
 20
-29.32042543868108
 10
-165.37767539080457
 20
-29.2293023669655
 10
-165.19885711682457
 20
-29.12687669079371
 10
-165.02880242181368
 20
-29.013587012635757
 10
-164.86823950608323
 20
-28.88991845628606
 10
-164.71785592468845
 20
-28.75640058948885
 10
-164.5782956432122
 20
-28.61360515624779
 10
-164.4501562802054
 20
-28.46214362853037
 10
-164.33398654809278
 20
-28.302664587851073
 10
-164.23028390350194
 20
-28.13585094794576
 10
-164.13949241707778
 20
-27.962417030430192
 10
-164.06200087190365
 20
-27.78310550596524
 10
-163.9981410986728
 20
-27.598684214027063
 10
-163.94818655473804
 20
-27.409942874900615
 10
-163.91235115312574
 20
-27.21768970797613
 10
-163.8907883465271
 20
-27.022747970829627
  0
LINE
  5
35
330
17
100
AcDbEntity
  8
HOLE_CENTERS
100
AcDbLine
 10
-169.24539256271333
 20
-26.589835006431535
 30
0.0
 11
-165.24539256271333
 21
-26.589835006431535
 31
0.0
  0
LINE
  5
36
330
17
100
AcDbEntity
  8
HOLE_CENTERS
100
AcDbLine
 10
-167.24539256271333
 20
-28.589835006431535
 30
0.0
 11
-167.24539256271333
 21
-24.589835006431535
 31
0.0
  0
POINT
  5
37
330
17
100
AcDbEntity
  8
HOLE_CENTERS
100
AcDbPoint
 10
-167.24539256271333
 20
-26.589835006431535
 30
0.0
  0
TEXT
  5
38
330
17
100
AcDbEntity
  8
LABELS
100
AcDbText
 10
-164.24539256271333
 20
-29.589835006431535
 30
0.0
 40
3.0
  1
T1
100
AcDbText
  0
LWPOLYLINE
  5
39
330
17
100
AcDbEntity
  8
SCANNED_OPENINGS
100
AcDbPolyline
 90
96
 70
1
 10
158.85004723615017
 20
-23.61745482828074
 10
158.84291913172765
 20
-23.420952508312606
 10
158.82156534209747
 20
-23.226376865124625
 10
158.7860773074652
 20
-23.034561101492724
 10
158.7366069930433
 20
-22.846326601964865
 10
158.67336623831298
 20
-22.66247941556631
 10
158.59662584989485
 20
-22.48380680417396
 10
158.50671444191357
 20
-22.311073871340103
 10
158.40401702882153
 20
-22.145020286001586
 10
158.288973376708
 20
-21.986357115103832
 10
158.16207612015313
 20
-21.835763778703043
 10
158.02386865269114
 20
-21.693885140585195
 10
157.87494279991566
 20
-21.561328746860315
 10
157.71593628519184
 20
-21.438662224356758
 10
157.5475299988268
 20
-21.32641084995599
 10
157.370445082393
 20
-21.225055301276345
 10
157.18543984068916
 20
-21.135029598337653
 10
156.99330649456277
 20
-21.056719245020894
 10
156.7948677884988
 20
-20.9904595782814
 10
156.59097346750147
 20
-20.936534332184507
 10
156.38249663835575
 20
-20.89517442291277
 10
156.17033003084995
 20
-20.86655695994737
 10
155.95538217496986
 20
-20.85080448765816
 10
155.7385735104337
 20
-20.84798446054985
 10
155.5208324452281
 20
-20.85810895441145
 10
155.30309138002252
 20
-20.881134614605905
 10
155.08628271548636
 20
-20.916962841721304
 10
154.87133485960626
 20
-20.965440213788685
 10
154.65916825210047
 20
-21.026359143258475
 10
154.45069142295475
 20
-21.09945876592224
 10
154.2467971019574
 20
-21.184426057973273
 10
154.04835839589344
 20
-21.280897176422602
 10
153.85622504976706
 20
-21.388459017130504
 10
153.67121980806323
 20
-21.506650983781878
 10
153.49413489162941
 20
-21.63496696023036
 10
153.3257286052644
 20
-21.772857477765374
 10
153.16672209054056
 20
-21.919732068021496
 10
153.01779623776508
 20
-22.074961791454648
 10
152.8795887703031
 20
-22.237881930557794
 10
152.75269151374823
 20
-22.407794836283333
 10
152.6376478616347
 20
-22.583972915483454
 10
152.53495044854265
 20
-22.765661746575663
 10
152.44503904056137
 20
-22.95208331009185
 10
152.36829865214324
 20
-23.142439320277077
 10
152.30505789741292
 20
-23.33591464347175
 10
152.255587582991
 20
-23.531680788639072
 10
152.22009954835875
 20
-23.728899455090872
 10
152.19874575872856
 20
-23.926726122219844
 10
152.19161765430604
 20
-24.124313665866442
 10
152.19874575872856
 20
-24.320815985834574
 10
152.22009954835875
 20
-24.515391629022552
 10
152.255587582991
 20
-24.707207392654457
 10
152.30505789741292
 20
-24.895441892182316
 10
152.36829865214324
 20
-25.079289078580867
 10
152.44503904056137
 20
-25.25796168997322
 10
152.53495044854265
 20
-25.430694622807078
 10
152.6376478616347
 20
-25.596748208145595
 10
152.75269151374823
 20
-25.75541137904335
 10
152.8795887703031
 20
-25.906004715444137
 10
153.01779623776508
 20
-26.047883353561986
 10
153.16672209054056
 20
-26.180439747286865
 10
153.32572860526437
 20
-26.303106269790423
 10
153.49413489162941
 20
-26.41535764419119
 10
153.67121980806323
 20
-26.516713192870835
 10
153.85622504976706
 20
-26.606738895809528
 10
154.04835839589344
 20
-26.685049249126287
 10
154.2467971019574
 20
-26.75130891586578
 10
154.45069142295475
 20
-26.805234161962673
 10
154.65916825210047
 20
-26.84659407123441
 10
154.87133485960626
 20
-26.87521153419981
 10
155.08628271548636
 20
-26.89096400648902
 10
155.30309138002252
 20
-26.89378403359733
 10
155.5208324452281
 20
-26.88365953973573
 10
155.7385735104337
 20
-26.860633879541275
 10
155.95538217496983
 20
-26.824805652425876
 10
156.17033003084995
 20
-26.776328280358495
 10
156.38249663835575
 20
-26.715409350888706
 10
156.59097346750147
 20
-26.64230972822494
 10
156.79486778849878
 20
-26.557342436173908
 10
156.99330649456275
 20
-26.460871317724582
 10
157.18543984068916
 20
-26.353309477016676
 10
157.370445082393
 20
-26.235117510365303
 10
157.5475299988268
 20
-26.10680153391682
 10
157.71593628519182
 20
-25.968911016381806
 10
157.87494279991566
 20
-25.822036426125685
 10
158.02386865269114
 20
-25.666806702692533
 10
158.16207612015313
 20
-25.503886563589386
 10
158.288973376708
 20
-25.333973657863847
 10
158.40401702882153
 20
-25.157795578663727
 10
158.50671444191357
 20
-24.97610674757152
 10
158.59662584989485
 20
-24.789685184055333
 10
158.67336623831298
 20
-24.599329173870103
 10
158.7366069930433
 20
-24.40585385067543
 10
158.7860773074652
 20
-24.21008770550811
 10
158.82156534209747
 20
-24.01286903905631
 10
158.84291913172765
 20
-23.815042371927337
  0
LINE
  5
3A
330
17
100
AcDbEntity
  8
HOLE_CENTERS
100
AcDbLine
 10
153.5208324452281
 20
-23.87088424707359
 30
0.0
 11
157.5208324452281
 21
-23.87088424707359
 31
0.0
  0
LINE
  5
3B
330
17
100
AcDbEntity
  8
HOLE_CENTERS
100
AcDbLine
 10
155.5208324452281
 20
-25.87088424707359
 30
0.0
 11
155.5208324452281
 21
-21.87088424707359
 31
0.0
  0
POINT
  5
3C
330
17
100
AcDbEntity
  8
HOLE_CENTERS
100
AcDbPoint
 10
155.5208324452281
 20
-23.87088424707359
 30
0.0
  0
TEXT
  5
3D
330
17
100
AcDbEntity
  8
LABELS
100
AcDbText
 10
158.5208324452281
 20
-26.87088424707359
 30
0.0
 40
3.0
  1
T2
100
AcDbText
  0
LWPOLYLINE
  5
3E
330
17
100
AcDbEntity
  8
SCANNED_OPENINGS
100
AcDbPolyline
 90
96
 70
1
 10
-129.08408183759332
 20
75.45623352609368
 10
-129.08974488329076
 20
75.62386435829987
 10
-129.10670977035198
 20
75.79082574369765
 10
-129.13490385252615
 20
75.95640272800239
 10
-129.17420639842493
 20
76.11988628514742
 10
-129.2244491085129
 20
76.28057635344261
 10
-129.28541683579215
 20
76.43778483334594
 10
-129.35684850709444
 20
76.59083853401137
 10
-129.43843824103695
 20
76.73908205599542
 10
-129.529836657853
 20
76.8818805977782
 10
-129.63065237549006
 20
77.01862267408096
 10
-129.7404536855677
 20
77.14872273433996
 10
-129.85877040201916
 20
77.2716236701238
 10
-129.98509587450027
 20
77.38679920075742
 10
-130.11888915794404
 20
77.49375612693653
 10
-130.25957732897047
 20
77.59203644268294
 10
-130.40655793923233
 20
77.68121929659634
 10
-130.55920159519167
 20
77.76092279400467
 10
-130.7168546532793
 20
77.83080563229572
 10
-130.87884201889725
 20
77.89056856242732
 10
-131.04447003727714
 20
77.93995567035769
 10
-131.21302946381658
 20
77.97875547290862
 10
-131.38379850117346
 20
78.00680182336892
 10
-131.5560458901128
 20
78.02397462296017
 10
-131.72903404087137
 20
78.03020033511811
 10
-131.90202219162992
 20
78.02545230038749
 10
-132.07426958056928
 20
78.00975085058195
 10
-132.24503861792616
 20
77.9831632217201
 10
-132.4135980444656
 20
77.94580326611053
 10
-132.5792260628455
 20
77.89783096481875
 10
-132.74121342846342
 20
77.83945174260376
 10
-132.89886648655107
 20
77.77091558825761
 10
-133.0515101425104
 20
77.69251598411506
 10
-133.19849075277227
 20
77.6045886493172
 10
-133.3391789237987
 20
77.50751010221046
 10
-133.47297220724246
 20
77.40169604803735
 10
-133.59929767972358
 20
77.28759959882268
 10
-133.71761439617504
 20
77.16570933307841
 10
-133.82741570625268
 20
77.03654720363538
 10
-133.92823142388974
 20
76.9006663025612
 10
-134.0196298407058
 20
76.75864849273509
 10
-134.1012195746483
 20
76.61110191622168
 10
-134.1726512459506
 20
76.4586583901134
 10
-134.23361897322982
 20
76.30197070099256
 10
-134.2838616833178
 20
76.14170980959913
 10
-134.3231642292166
 20
75.97856197767375
 10
-134.35135831139075
 20
75.81322582927963
 10
-134.36832319845198
 20
75.64640935918707
 10
-134.37398624414942
 20
75.47882690113113
 10
-134.36832319845198
 20
75.31119606892494
 10
-134.35135831139075
 20
75.14423468352716
 10
-134.3231642292166
 20
74.97865769922242
 10
-134.2838616833178
 20
74.8151741420774
 10
-134.23361897322982
 20
74.6544840737822
 10
-134.1726512459506
 20
74.49727559387887
 10
-134.1012195746483
 20
74.34422189321344
 10
-134.0196298407058
 20
74.19597837122939
 10
-133.92823142388974
 20
74.0531798294466
 10
-133.82741570625268
 20
73.91643775314385
 10
-133.71761439617504
 20
73.78633769288487
 10
-133.59929767972358
 20
73.66343675710101
 10
-133.47297220724246
 20
73.54826122646739
 10
-133.3391789237987
 20
73.44130430028828
 10
-133.19849075277227
 20
73.34302398454187
 10
-133.0515101425104
 20
73.25384113062847
 10
-132.89886648655107
 20
73.17413763322014
 10
-132.74121342846342
 20
73.10425479492909
 10
-132.5792260628455
 20
73.0444918647975
 10
-132.4135980444656
 20
72.99510475686712
 10
-132.24503861792616
 20
72.9563049543162
 10
-132.07426958056928
 20
72.9282586038559
 10
-131.90202219162992
 20
72.91108580426464
 10
-131.72903404087137
 20
72.9048600921067
 10
-131.5560458901128
 20
72.90960812683733
 10
-131.38379850117346
 20
72.92530957664286
 10
-131.21302946381658
 20
72.95189720550471
 10
-131.04447003727714
 20
72.98925716111428
 10
-130.87884201889725
 20
73.03722946240606
 10
-130.7168546532793
 20
73.09560868462106
 10
-130.55920159519167
 20
73.1641448389672
 10
-130.40655793923233
 20
73.24254444310975
 10
-130.25957732897047
 20
73.33047177790762
 10
-130.11888915794407
 20
73.42755032501434
 10
-129.98509587450027
 20
73.53336437918746
 10
-129.85877040201916
 20
73.64746082840213
 10
-129.7404536855677
 20
73.7693510941464
 10
-129.63065237549006
 20
73.89851322358943
 10
-129.529836657853
 20
74.0343941246636
 10
-129.43843824103695
 20
74.17641193448972
 10
-129.35684850709444
 20
74.32395851100311
 10
-129.28541683579215
 20
74.47640203711141
 10
-129.2244491085129
 20
74.63308972623226
 10
-129.17420639842493
 20
74.79335061762568
 10
-129.13490385252615
 20
74.95649844955106
 10
-129.10670977035198
 20
75.12183459794518
 10
-129.08974488329076
 20
75.28865106803774
  0
LINE
  5
3F
330
17
100
AcDbEntity
  8
HOLE_CENTERS
100
AcDbLine
 10
-133.72903404087137
 20
75.4675302136124
 30
0.0
 11
-129.72903404087137
 21
75.4675302136124
 31
0.0
  0
LINE
  5
40
330
17
100
AcDbEntity
  8
HOLE_CENTERS
100
AcDbLine
 10
-131.72903404087137
 20
73.4675302136124
 30
0.0
 11
-131.72903404087137
 21
77.4675302136124
 31
0.0
  0
POINT
  5
41
330
17
100
AcDbEntity
  8
HOLE_CENTERS
100
AcDbPoint
 10
-131.72903404087137
 20
75.4675302136124
 30
0.0
  0
TEXT
  5
42
330
17
100
AcDbEntity
  8
LABELS
100
AcDbText
 10
-128.72903404087137
 20
72.4675302136124
 30
0.0
 40
3.0
  1
B1
100
AcDbText
  0
LWPOLYLINE
  5
43
330
17
100
AcDbEntity
  8
SCANNED_OPENINGS
100
AcDbPolyline
 90
96
 70
1
 10
-149.50014534451702
 20
84.44833807014747
 10
-149.52761425657252
 20
84.63609121129234
 10
-149.56758960944745
 20
84.82179048882071
 10
-149.6199002225437
 20
85.00464070991711
 10
-149.68432209378508
 20
85.18385888186316
 10
-149.76057935882875
 20
85.35867756493249
 10
-149.84834547235852
 20
85.52834815868556
 10
-149.9472446064022
 20
85.6921441075916
 10
-150.05685325968454
 20
85.84936401225099
 10
-150.1767020711247
 20
85.99933463289514
 10
-150.30627782971266
 20
86.14141377230254
 10
-150.44502567215724
 20
86.27499302578586
 10
-150.5923514588962
 20
86.39950038647424
 10
-150.7476243182928
 20
86.51440269473449
 10
-150.91017934812518
 20
86.61920792124249
 10
-151.07932046279973
 20
86.71346727392836
 10
-151.2543233740964
 20
86.79677711977295
 10
-151.43443869268205
 20
86.86878071322639
 10
-151.6188951371107
 20
86.9291697238473
 10
-151.80690283656907
 20
86.97768555662113
 10
-151.99765671322456
 20
87.01412045930365
 10
-152.1903399296923
 20
87.038318412048
 10
-152.3841273868581
 20
87.05017579550557
 10
-152.5781892570796
 20
87.04964183454001
 10
-152.77169453763554
 20
87.03671881565418
 10
-153.53649375343355
 20
86.95476261322372
 10
-153.72640592837956
 20
86.91728030843056
 10
-153.91329697361098
 20
86.86773294228303
 10
-154.0963665929801
 20
86.80633268420962
 10
-154.2748308542714
 20
86.73334245954173
 10
-154.44792554611976
 20
86.64907482362706
 10
-154.61490945048067
 20
86.55389062341959
 10
-154.77506751663978
 20
86.44819745227757
 10
-154.92771392316993
 20
86.33244790458613
 10
-155.07219501472366
 20
86.20713763767867
 10
-155.20789210108578
 20
86.0728032493561
 10
-155.3342241064999
 20
85.93001998009257
 10
-155.45065005792398
 20
85.77939924976758
 10
-155.55667140155998
 20
85.62158603947209
 10
-155.6518341377378
 20
85.4572561296005
 10
-155.73573076501143
 20
85.28711320605528
 10
-155.80800202514286
 20
85.11188584695586
 10
-155.86833844150092
 20
84.9323244027553
 10
-155.91648164428776
 20
84.74919778312443
 10
-155.95222547691793
 20
84.56329016436264
 10
-155.97541687881267
 20
84.37539763143451
 10
-155.98595654082862
 20
84.18632476901183
 10
-155.98379933051496
 20
83.9968812161185
 10
-155.96895448537742
 20
83.80787819913188
 10
-155.94148557332193
 20
83.62012505798701
 10
-155.901510220447
 20
83.43442578045864
 10
-155.84919960735076
 20
83.25157555936224
 10
-155.78477773610936
 20
83.07235738741619
 10
-155.7085204710657
 20
82.89753870434686
 10
-155.62075435753593
 20
82.72786811059379
 10
-155.52185522349225
 20
82.56407216168775
 10
-155.4122465702099
 20
82.40685225702836
 10
-155.29239775876974
 20
82.25688163638421
 10
-155.1628220001818
 20
82.11480249697681
 10
-155.0240741577372
 20
81.98122324349349
 10
-154.87674837099826
 20
81.8567158828051
 10
-154.72147551160165
 20
81.74181357454486
 10
-154.55892048176926
 20
81.63700834803686
 10
-154.38977936709472
 20
81.54274899535099
 10
-154.21477645579805
 20
81.4594391495064
 10
-154.0346611372124
 20
81.38743555605296
 10
-153.85020469278373
 20
81.32704654543205
 10
-153.66219699332538
 20
81.27853071265822
 10
-153.4714431166699
 20
81.2420958099757
 10
-153.27875990020215
 20
81.21789785723135
 10
-153.08497244303635
 20
81.20604047377378
 10
-152.89091057281485
 20
81.20657443473934
 10
-152.6974052922589
 20
81.21949745362517
 10
-151.9326060764609
 20
81.30145365605563
 10
-151.74269390151488
 20
81.33893596084879
 10
-151.55580285628346
 20
81.38848332699632
 10
-151.37273323691434
 20
81.44988358506973
 10
-151.19426897562303
 20
81.52287380973762
 10
-151.02117428377468
 20
81.60714144565229
 10
-150.85419037941378
 20
81.70232564585976
 10
-150.69403231325467
 20
81.80801881700178
 10
-150.5413859067245
 20
81.92376836469322
 10
-150.39690481517079
 20
82.04907863160066
 10
-150.26120772880867
 20
82.18341301992325
 10
-150.13487572339454
 20
82.32619628918678
 10
-150.01844977197047
 20
82.47681701951177
 10
-149.91242842833447
 20
82.63463022980726
 10
-149.81726569215664
 20
82.79896013967885
 10
-149.73336906488302
 20
82.96910306322407
 10
-149.6610978047516
 20
83.14433042232349
 10
-149.60076138839352
 20
83.32389186652405
 10
-149.5526181856067
 20
83.50701848615492
 10
-149.51687435297652
 20
83.69292610491671
 10
-149.49368295108178
 20
83.88081863784484
 10
-149.48314328906582
 20
84.06989150026752
 10
-149.4853004993795
 20
84.25933505316085
  0
LINE
  5
44
330
17
100
AcDbEntity
  8
HOLE_CENTERS
100
AcDbLine
 10
-154.73454991494722
 20
84.12810813463967
 30
0.0
 11
-150.73454991494722
 21
84.12810813463967
 31
0.0
  0
LINE
  5
45
330
17
100
AcDbEntity
  8
HOLE_CENTERS
100
AcDbLine
 10
-152.73454991494722
 20
82.12810813463967
 30
0.0
 11
-152.73454991494722
 21
86.12810813463967
 31
0.0
  0
POINT
  5
46
330
17
100
AcDbEntity
  8
HOLE_CENTERS
100
AcDbPoint
 10
-152.73454991494722
 20
84.12810813463967
 30
0.0
  0
TEXT
  5
47
330
17
100
AcDbEntity
  8
LABELS
100
AcDbText
 10
-149.73454991494722
 20
81.12810813463967
 30
0.0
 40
3.0
  1
B2
100
AcDbText
  0
LWPOLYLINE
  5
48
330
17
100
AcDbEntity
  8
SCANNED_OPENINGS
100
AcDbPolyline
 90
96
 70
1
 10
-129.81991527159477
 20
83.99776300619476
 10
-129.826492681193
 20
84.19199218014444
 10
-129.84619674450997
 20
84.38545866240989
 10
-129.87894308572155
 20
84.57733399981251
 10
-129.92459147996738
 20
84.76679655270033
 10
-129.9829464538152
 20
84.95303501333505
 10
-130.05375812230818
 20
85.13525188003639
 10
-130.13672325901067
 20
85.31266687220669
 10
-130.2314865944702
 20
85.48452027161223
 10
-130.33764233753607
 20
85.65007617561334
 10
-130.45473591301908
 20
85.80862564841249
 10
-130.58226590825254
 20
85.95948975682619
 10
-130.71968622021805
 20
86.10202247758113
 10
-130.86640839404265
 20
86.23561346368503
 10
-131.02180414285283
 20
86.35969065802611
 10
-131.18520803819538
 20
86.47372274300955
 10
-131.35592035950424
 20
86.5772214157409
 10
-131.5332100904113
 20
86.66974347901413
 10
-131.71631804907082
 20
86.75089273915007
 10
-131.90446013909258
 20
86.82032170255854
 10
-132.096830707163
 20
86.87773306375931
 10
-132.29260599297635
 20
86.92288097848976
 10
-132.4909476567028
 20
86.95557211644778
 10
-132.69100636888828
 20
86.9756664891618
 10
-132.89192544741368
 20
86.98307804944291
 10
-133.09284452593909
 20
86.97777505985215
 10
-133.29290323812458
 20
86.95978022860507
 10
-133.49124490185102
 20
86.92917061233169
 10
-133.68702018766436
 20
86.88607728610818
 10
-133.8793907557348
 20
86.83068478217321
 10
-134.06753284575655
 20
86.76323029973265
 10
-134.25064080441607
 20
86.68400268923612
 10
-134.42793053532313
 20
86.59334121547501
 10
-134.59864285663198
 20
86.49163410479856
 10
-134.76204675197454
 20
86.37931688266906
 10
-134.91744250078472
 20
86.25687050867491
 10
-135.06416467460932
 20
86.12481931698785
 10
-135.20158498657483
 20
85.98372877108358
 10
-135.3291149818083
 20
85.83420304234026
 10
-135.4462085572913
 20
85.67688242288398
 10
-135.55236430035717
 20
85.51244058375956
 10
-135.6471276358167
 20
85.34158169016769
 10
-135.73009277251919
 20
85.16503738612145
 10
-135.80090444101216
 20
84.98356366143437
 10
-135.85925941486
 20
84.79793761445592
 10
-135.90490780910582
 20
84.60895412441705
 10
-135.9376541503174
 20
84.41742244763542
 10
-135.95735821363436
 20
84.22416275215545
 10
-135.9639356232326
 20
84.03000260566299
 10
-135.95735821363436
 20
83.8357734317133
 10
-135.9376541503174
 20
83.64230694944786
 10
-135.90490780910582
 20
83.45043161204524
 10
-135.85925941486
 20
83.26096905915742
 10
-135.80090444101216
 20
83.07473059852269
 10
-135.73009277251919
 20
82.89251373182135
 10
-135.6471276358167
 20
82.71509873965105
 10
-135.55236430035717
 20
82.54324534024552
 10
-135.4462085572913
 20
82.37768943624441
 10
-135.3291149818083
 20
82.21913996344526
 10
-135.20158498657483
 20
82.06827585503156
 10
-135.06416467460932
 20
81.92574313427662
 10
-134.91744250078472
 20
81.79215214817272
 10
-134.76204675197454
 20
81.66807495383163
 10
-134.59864285663198
 20
81.55404286884821
 10
-134.42793053532313
 20
81.45054419611685
 10
-134.25064080441607
 20
81.35802213284362
 10
-134.06753284575655
 20
81.27687287270767
 10
-133.8793907557348
 20
81.2074439092992
 10
-133.68702018766436
 20
81.15003254809844
 10
-133.49124490185102
 20
81.10488463336799
 10
-133.29290323812458
 20
81.07219349540996
 10
-133.09284452593909
 20
81.05209912269595
 10
-132.89192544741368
 20
81.04468756241484
 10
-132.69100636888828
 20
81.0499905520056
 10
-132.4909476567028
 20
81.06798538325268
 10
-132.29260599297635
 20
81.09859499952606
 10
-132.096830707163
 20
81.14168832574957
 10
-131.90446013909258
 20
81.19708082968454
 10
-131.71631804907082
 20
81.26453531212509
 10
-131.5332100904113
 20
81.34376292262162
 10
-131.35592035950424
 20
81.43442439638274
 10
-131.18520803819538
 20
81.53613150705918
 10
-131.02180414285283
 20
81.64844872918869
 10
-130.86640839404265
 20
81.77089510318284
 10
-130.71968622021805
 20
81.90294629486989
 10
-130.58226590825254
 20
82.04403684077415
 10
-130.45473591301908
 20
82.19356256951748
 10
-130.33764233753607
 20
82.35088318897375
 10
-130.2314865944702
 20
82.51532502809819
 10
-130.13672325901067
 20
82.68618392169006
 10
-130.05375812230818
 20
82.86272822573629
 10
-129.9829464538152
 20
83.04420195042337
 10
-129.92459147996738
 20
83.22982799740183
 10
-129.87894308572155
 20
83.41881148744069
 10
-129.84619674450997
 20
83.61034316422233
 10
-129.826492681193
 20
83.8036028597023
  0
LINE
  5
49
330
17
100
AcDbEntity
  8
HOLE_CENTERS
100
AcDbLine
 10
-134.89192544741368
 20
84.01388280592887
 30
0.0
 11
-130.89192544741368
 21
84.01388280592887
 31
0.0
  0
LINE
  5
4A
330
17
100
AcDbEntity
  8
HOLE_CENTERS
100
AcDbLine
 10
-132.89192544741368
 20
82.01388280592887
 30
0.0
 11
-132.89192544741368
 21
86.01388280592887
 31
0.0
  0
POINT
  5
4B
330
17
100
AcDbEntity
  8
HOLE_CENTERS
100
AcDbPoint
 10
-132.89192544741368
 20
84.01388280592887
 30
0.0
  0
TEXT
  5
4C
330
17
100
AcDbEntity
  8
LABELS
100
AcDbText
 10
-129.89192544741368
 20
81.01388280592887
 30
0.0
 40
3.0
  1
B3
100
AcDbText
  0
LWPOLYLINE
  5
4D
330
17
100
AcDbEntity
  8
SCANNED_OPENINGS
100
AcDbPolyline
 90
96
 70
1
 10
125.19034701202318
 20
74.31228474034232
 10
125.18342253700206
 20
74.51814563591923
 10
125.1626787636038
 20
74.72314872391465
 10
125.12820451985073
 20
74.92641614963316
 10
125.08014742974717
 20
75.12707749075162
 10
125.01871328113083
 20
75.32427348460128
 10
124.9441651444576
 20
75.51715970766242
 10
124.85682224629358
 20
75.70491019151544
 10
124.7570586023378
 20
75.88672095976449
 10
124.6453014158297
 20
76.06181347078787
 10
124.52202924819919
 20
76.22943795157265
 10
124.38776996979313
 20
76.38887660835795
 10
124.24309849945351
 20
76.53944670033793
 10
124.08863434262672
 20
76.68050346326281
 10
123.92503893854602
 20
76.8114428704183
 10
123.75301282784736
 20
76.9317042191608
 10
123.57329265274663
 20
77.04077253193212
 10
123.38664800262478
 20
77.13818076147251
 10
123.19387811852783
 20
77.22351179078868
 10
122.99580847069407
 20
77.29640021931284
 10
122.79328722376373
 20
77.35653392760405
 10
122.58718160480777
 20
77.40365541389146
 10
122.37837418972848
 20
77.43756289673661
 10
122.16775912393393
 20
77.45811117909236
 10
121.95623829347007
 20
77.46521227005903
 10
121.7447174630062
 20
77.45883576167493
 10
121.53410239721165
 20
77.43900895912792
 10
121.32529498213236
 20
77.40581676383033
 10
121.1191893631764
 20
77.35940130985821
 10
120.91666811624606
 20
77.29996135531131
 10
120.7185984684123
 20
77.22775143120036
 10
120.52582858431535
 20
77.14308075150629
 10
120.3391839341935
 20
77.04631188907842
 10
120.15946375909277
 20
76.9378592230419
 10
119.9874376483941
 20
76.81818716436266
 10
119.82384224431341
 20
76.68780816716833
 10
119.66937808748662
 20
76.54728053434106
 10
119.524706617147
 20
76.3972060267788
 10
119.39044733874094
 20
76.23822728656282
 10
119.26717517111042
 20
76.07102508506554
 10
119.15541798460232
 20
75.89631540778316
 10
119.05565434064656
 20
75.71484638837569
 10
118.96831144248253
 20
75.5273951050439
 10
118.8937633058093
 20
75.33476425296102
 10
118.83232915719296
 20
75.13777870700892
 10
118.7842720670894
 20
74.93728198953713
 10
118.74979782333634
 20
74.73413265827068
 10
118.72905404993807
 20
74.52920062983411
 10
118.72212957491695
 20
74.32336345463493
 10
118.72905404993807
 20
74.11750255905802
 10
118.74979782333634
 20
73.9124994710626
 10
118.7842720670894
 20
73.7092320453441
 10
118.83232915719296
 20
73.50857070422563
 10
118.8937633058093
 20
73.31137471037597
 10
118.96831144248253
 20
73.11848848731483
 10
119.05565434064656
 20
72.93073800346181
 10
119.15541798460232
 20
72.74892723521276
 10
119.26717517111042
 20
72.57383472418938
 10
119.39044733874094
 20
72.4062102434046
 10
119.524706617147
 20
72.24677158661932
 10
119.66937808748662
 20
72.09620149463933
 10
119.82384224431341
 20
71.95514473171444
 10
119.9874376483941
 20
71.82420532455895
 10
120.15946375909277
 20
71.70394397581644
 10
120.3391839341935
 20
71.59487566304513
 10
120.52582858431535
 20
71.49746743350474
 10
120.7185984684123
 20
71.41213640418857
 10
120.91666811624606
 20
71.3392479756644
 10
121.1191893631764
 20
71.2791142673732
 10
121.32529498213236
 20
71.2319927810858
 10
121.53410239721165
 20
71.19808529824064
 10
121.7447174630062
 20
71.1775370158849
 10
121.95623829347007
 20
71.17043592491822
 10
122.16775912393392
 20
71.17681243330232
 10
122.37837418972848
 20
71.19663923584933
 10
122.58718160480775
 20
71.22983143114692
 10
122.79328722376373
 20
71.27624688511904
 10
122.99580847069407
 20
71.33568683966594
 10
123.19387811852783
 20
71.40789676377689
 10
123.38664800262478
 20
71.49256744347096
 10
123.57329265274663
 20
71.58933630589883
 10
123.75301282784734
 20
71.69778897193535
 10
123.92503893854602
 20
71.8174610306146
 10
124.0886343426267
 20
71.94784002780892
 10
124.24309849945351
 20
72.0883676606362
 10
124.38776996979313
 20
72.23844216819845
 10
124.52202924819919
 20
72.39742090841443
 10
124.6453014158297
 20
72.56462310991171
 10
124.7570586023378
 20
72.73933278719409
 10
124.85682224629358
 20
72.92080180660155
 10
124.9441651444576
 20
73.10825308993336
 10
125.01871328113083
 20
73.30088394201623
 10
125.08014742974717
 20
73.49786948796833
 10
125.12820451985073
 20
73.69836620544012
 10
125.1626787636038
 20
73.90151553670657
 10
125.18342253700206
 20
74.10644756514313
  0
LINE
  5
4E
330
17
100
AcDbEntity
  8
HOLE_CENTERS
100
AcDbLine
 10
119.95623829347007
 20
74.31782409748863
 30
0.0
 11
123.95623829347007
 21
74.31782409748863
 31
0.0
  0
LINE
  5
4F
330
17
100
AcDbEntity
  8
HOLE_CENTERS
100
AcDbLine
 10
121.95623829347007
 20
72.31782409748863
 30
0.0
 11
121.95623829347007
 21
76.31782409748863
 31
0.0
  0
POINT
  5
50
330
17
100
AcDbEntity
  8
HOLE_CENTERS
100
AcDbPoint
 10
121.95623829347007
 20
74.31782409748863
 30
0.0
  0
TEXT
  5
51
330
17
100
AcDbEntity
  8
LABELS
100
AcDbText
 10
124.95623829347007
 20
71.31782409748863
 30
0.0
 40
3.0
  1
B4
100
AcDbText
  0
LWPOLYLINE
  5
52
330
17
100
AcDbEntity
  8
SCANNED_OPENINGS
100
AcDbPolyline
 90
96
 70
1
 10
120.68393952403375
 20
82.87190883342463
 10
120.67734132586558
 20
83.06776926375382
 10
120.65757498585863
 20
83.26281474188062
 10
120.62472514651536
 20
83.45621005312373
 10
120.57893247589105
 20
83.64712704906985
 10
120.52039306523154
 20
83.83474819383221
 10
120.4493575892804
 20
84.01827006486482
 10
120.36613023285122
 20
84.19690679334113
 10
120.27106738826153
 20
84.36989342936499
 10
120.16457612920615
 20
84.53648921760357
 10
120.04711246760523
 20
84.69598076931537
 10
119.91917940089108
 20
84.84768511719037
 10
119.781324758096
 20
84.99095263992088
 10
119.63413885396429
 20
85.12516984397976
 10
119.4782519611338
 20
85.24976199069384
 10
119.31433161121186
 20
85.36419555736313
 10
119.14307973630231
 20
85.467980521887
 10
118.9652296632246
 20
85.560672461114
 10
118.78154297329569
 20
85.64187445393003
 10
118.59280624112193
 20
85.71123878093552
 10
118.39982766636591
 20
85.7684684134332
 10
118.20343361291133
 20
85.81331828535066
 10
118.00446507024603
 20
85.8455963426509
 10
117.80377405221593
 20
85.86516436573712
 10
117.60221994857086
 20
85.87193856133032
 10
117.4006658449258
 20
85.865889921285
 10
117.1999748268957
 20
85.84704434680643
 10
117.0010062842304
 20
85.81548253753775
 10
116.80461223077582
 20
85.77133964599169
 10
116.61163365601979
 20
85.71480469880682
 10
116.42289692384604
 20
85.64611978730638
 10
116.23921023391712
 20
85.56557903082609
 10
116.06136016083941
 20
85.47352731725007
 10
115.89010828592987
 20
85.37035882614788
 10
115.72618793600793
 20
85.25651534083713
 10
115.57030104317745
 20
85.13248435659949
 10
115.42311513904572
 20
84.99879699315105
 10
115.28526049625064
 20
84.85602572030615
 10
115.1573274295365
 20
84.70478190657377
 10
115.03986376793557
 20
84.54571320118367
 10
114.93337250888021
 20
84.37950076075302
 10
114.8383096642905
 20
84.20685633246913
 10
114.75508230786133
 20
84.02851920627876
 10
114.68404683191018
 20
83.84525304913508
 10
114.62550742125067
 20
83.65784263485851
 10
114.57971475062637
 20
83.46709048361475
 10
114.5468649112831
 20
83.27381342540023
 10
114.52709857127614
 20
83.07883910225067
 10
114.52050037310798
 20
82.88300242415077
 10
114.52709857127614
 20
82.68714199382158
 10
114.5468649112831
 20
82.49209651569478
 10
114.57971475062637
 20
82.29870120445167
 10
114.62550742125067
 20
82.10778420850555
 10
114.68404683191018
 20
81.92016306374319
 10
114.75508230786133
 20
81.73664119271058
 10
114.8383096642905
 20
81.55800446423427
 10
114.9333725088802
 20
81.38501782821041
 10
115.03986376793557
 20
81.21842203997183
 10
115.1573274295365
 20
81.05893048826003
 10
115.28526049625064
 20
80.90722614038503
 10
115.42311513904572
 20
80.76395861765452
 10
115.57030104317744
 20
80.62974141359564
 10
115.72618793600792
 20
80.50514926688156
 10
115.89010828592987
 20
80.39071570021227
 10
116.06136016083941
 20
80.2869307356884
 10
116.23921023391712
 20
80.1942387964614
 10
116.42289692384604
 20
80.11303680364537
 10
116.61163365601979
 20
80.04367247663988
 10
116.8046122307758
 20
79.9864428441422
 10
117.0010062842304
 20
79.94159297222474
 10
117.1999748268957
 20
79.90931491492451
 10
117.4006658449258
 20
79.88974689183829
 10
117.60221994857086
 20
79.88297269624508
 10
117.80377405221593
 20
79.8890213362904
 10
118.00446507024603
 20
79.90786691076897
 10
118.20343361291133
 20
79.93942872003765
 10
118.39982766636591
 20
79.98357161158371
 10
118.59280624112193
 20
80.04010655876858
 10
118.78154297329569
 20
80.10879147026903
 10
118.9652296632246
 20
80.18933222674931
 10
119.14307973630231
 20
80.28138394032533
 10
119.31433161121186
 20
80.38455243142752
 10
119.4782519611338
 20
80.49839591673827
 10
119.63413885396427
 20
80.62242690097591
 10
119.781324758096
 20
80.75611426442435
 10
119.91917940089108
 20
80.89888553726925
 10
120.04711246760523
 20
81.05012935100163
 10
120.16457612920615
 20
81.20919805639171
 10
120.27106738826151
 20
81.37541049682238
 10
120.36613023285122
 20
81.54805492510627
 10
120.4493575892804
 20
81.72639205129664
 10
120.52039306523154
 20
81.90965820844032
 10
120.57893247589105
 20
82.09706862271689
 10
120.62472514651536
 20
82.28782077396065
 10
120.65757498585863
 20
82.48109783217517
 10
120.67734132586558
 20
82.67607215532473
  0
LINE
  5
53
330
17
100
AcDbEntity
  8
HOLE_CENTERS
100
AcDbLine
 10
115.60221994857086
 20
82.8774556287877
 30
0.0
 11
119.60221994857086
 21
82.8774556287877
 31
0.0
  0
LINE
  5
54
330
17
100
AcDbEntity
  8
HOLE_CENTERS
100
AcDbLine
 10
117.60221994857086
 20
80.8774556287877
 30
0.0
 11
117.60221994857086
 21
84.8774556287877
 31
0.0
  0
POINT
  5
55
330
17
100
AcDbEntity
  8
HOLE_CENTERS
100
AcDbPoint
 10
117.60221994857086
 20
82.8774556287877
 30
0.0
  0
TEXT
  5
56
330
17
100
AcDbEntity
  8
LABELS
100
AcDbText
 10
120.60221994857086
 20
79.8774556287877
 30
0.0
 40
3.0
  1
B5
100
AcDbText
  0
LWPOLYLINE
  5
57
330
17
100
AcDbEntity
  8
SCANNED_OPENINGS
100
AcDbPolyline
 90
96
 70
1
 10
142.68605926826422
 20
82.73333591599112
 10
142.67937849566377
 20
82.93447954625431
 10
142.65925556358752
 20
83.1347803558275
 10
142.62577664152002
 20
83.33338062589337
 10
142.5790850913453
 20
83.5294299196058
 10
142.5193808534494
 20
83.72208872379112
 10
142.44691959054504
 20
83.91053204387227
 10
142.36201159288433
 20
84.0939529366223
 10
142.26502044954862
 20
84.27156596561919
 10
142.15636149150401
 20
84.44261056460512
 10
142.03650001309052
 20
84.606354294348
 10
141.9059492795601
 20
84.76209597905866
 10
141.76526832919632
 20
84.90916870893327
 10
141.61505957942632
 20
85.0469426959635
 10
141.4559662471771
 20
85.17482797078543
 10
141.2886695945218
 20
85.29227690901897
 10
141.11388601141093
 20
85.39878657627953
 10
140.93236394798066
 20
85.49390088182022
 10
140.74488070957435
 20
85.5772125315825
 10
140.55223912820182
 20
85.64836477229187
 10
140.3552641246894
 20
85.70705291913012
 10
140.15479917624222
 20
85.75302566044249
 10
139.95170270454554
 20
85.78608613389285
 10
139.74684439987104
 20
85.80609276945833
 10
139.5411014969298
 20
85.81295989565398
 10
136.10870445088727
 20
85.81109113629994
 10
135.90383543481354
 20
85.79164741680773
 10
135.7007211617563
 20
85.75914502807807
 10
135.50023139821548
 20
85.71372315032934
 10
135.30322467213833
 20
85.65557628701538
 10
135.1105445965709
 20
85.58495343193175
 10
134.92301625717755
 20
85.50215700298612
 10
134.74144267909747
 20
85.40754154719842
 10
134.56660138826769
 20
85.30151222247592
 10
134.39924108193762
 20
85.18452306266502
 10
134.2400784226326
 20
85.05707503330852
 10
134.08979496929487
 20
84.91971388643432
 10
133.94903425874358
 20
84.77302782356139
 10
133.81839904995127
 20
84.6176449769306
 10
133.6984487429375
 20
84.45423071974605
 10
133.58969698333195
 20
84.28348481694479
 10
133.49260946286518
 20
84.10613842869604
 10
133.40760192520494
 20
83.92295097946096
 10
133.33503838567813
 20
83.73470690602065
 10
133.2752295725011
 20
83.54221229839732
 10
133.22843159619396
 20
83.34629144805312
 10
133.19484485287575
 20
83.14778331814755
 10
133.1746131661377
 20
82.9475379509684
 10
133.1678231711685
 20
82.74641282792012
 10
133.17450394376894
 20
82.54526919765694
 10
133.1946268758452
 20
82.34496838808374
 10
133.2281057979127
 20
82.14636811801788
 10
133.27479734808742
 20
81.95031882430544
 10
133.3345015859833
 20
81.75766002012013
 10
133.40696284888767
 20
81.569216700039
 10
133.49187084654838
 20
81.38579580728894
 10
133.5888619898841
 20
81.20818277829206
 10
133.6975209479287
 20
81.03713817930613
 10
133.8173824263422
 20
80.87339444956325
 10
133.9479331598726
 20
80.71765276485259
 10
134.0886141102364
 20
80.57058003497798
 10
134.2388228600064
 20
80.43280604794775
 10
134.39791619225562
 20
80.30492077312582
 10
134.56521284491092
 20
80.18747183489228
 10
134.73999642802178
 20
80.08096216763172
 10
134.92151849145205
 20
79.98584786209102
 10
135.10900172985833
 20
79.90253621232874
 10
135.3016433112309
 20
79.83138397161937
 10
135.4986183147433
 20
79.77269582478112
 10
135.6990832631905
 20
79.72672308346876
 10
135.90217973488717
 20
79.6936626100184
 10
136.10703803956167
 20
79.67365597445291
 10
136.3127809425029
 20
79.66678884825727
 10
139.74517798854544
 20
79.66865760761131
 10
139.95004700461917
 20
79.68810132710351
 10
140.15316127767642
 20
79.72060371583318
 10
140.35365104121723
 20
79.7660255935819
 10
140.55065776729438
 20
79.82417245689587
 10
140.74333784286182
 20
79.8947953119795
 10
140.93086618225516
 20
79.97759174092512
 10
141.11243976033523
 20
80.07220719671282
 10
141.28728105116502
 20
80.17823652143532
 10
141.4546413574951
 20
80.29522568124622
 10
141.61380401680012
 20
80.42267371060272
 10
141.76408747013784
 20
80.56003485747692
 10
141.90484818068913
 20
80.70672092034985
 10
142.03548338948144
 20
80.86210376698064
 10
142.1554336964952
 20
81.0255180241652
 10
142.26418545610076
 20
81.19626392696645
 10
142.36127297656753
 20
81.3736103152152
 10
142.44628051422777
 20
81.55679776445028
 10
142.51884405375458
 20
81.7450418378906
 10
142.5786528669316
 20
81.93753644551393
 10
142.62545084323875
 20
82.13345729585812
 10
142.65903758655696
 20
82.33196542576368
 10
142.679269273295
 20
82.53221079294285
  0
LINE
  5
58
330
17
100
AcDbEntity
  8
HOLE_CENTERS
100
AcDbLine
 10
135.92694121971635
 20
82.73987437195562
 30
0.0
 11
139.92694121971635
 21
82.73987437195562
 31
0.0
  0
LINE
  5
59
330
17
100
AcDbEntity
  8
HOLE_CENTERS
100
AcDbLine
 10
137.92694121971635
 20
80.73987437195562
 30
0.0
 11
137.92694121971635
 21
84.73987437195562
 31
0.0
  0
POINT
  5
5A
330
17
100
AcDbEntity
  8
HOLE_CENTERS
100
AcDbPoint
 10
137.92694121971635
 20
82.73987437195562
 30
0.0
  0
TEXT
  5
5B
330
17
100
AcDbEntity
  8
LABELS
100
AcDbText
 10
140.92694121971635
 20
79.73987437195562
 30
0.0
 40
3.0
  1
B6
100
AcDbText
  0
ENDSEC
  0
SECTION
  2
OBJECTS
  0
DICTIONARY
  5
A
330
0
100
AcDbDictionary
281
1
  3
ACAD_COLOR
350
B
  3
ACAD_GROUP
350
C
  3
ACAD_LAYOUT
350
D
  3
ACAD_MATERIAL
350
E
  3
ACAD_MLEADERSTYLE
350
F
  3
ACAD_MLINESTYLE
350
10
  3
ACAD_PLOTSETTINGS
350
11
  3
ACAD_PLOTSTYLENAME
350
12
  3
ACAD_SCALELIST
350
14
  3
ACAD_TABLESTYLE
350
15
  3
ACAD_VISUALSTYLE
350
16
  3
EZDXF_META
350
2D
  0
DICTIONARY
  5
B
330
A
100
AcDbDictionary
281
1
  0
DICTIONARY
  5
C
330
A
100
AcDbDictionary
281
1
  0
DICTIONARY
  5
D
330
A
100
AcDbDictionary
281
1
  3
Model
350
1A
  3
Layout1
350
1E
  0
DICTIONARY
  5
E
330
A
100
AcDbDictionary
281
1
  3
ByBlock
350
1F
  3
ByLayer
350
20
  3
Global
350
21
  0
DICTIONARY
  5
F
330
A
100
AcDbDictionary
281
1
  3
Standard
350
2C
  0
DICTIONARY
  5
10
330
A
100
AcDbDictionary
281
1
  3
Standard
350
22
  0
DICTIONARY
  5
11
330
A
100
AcDbDictionary
281
1
  0
ACDBDICTIONARYWDFLT
  5
12
330
A
100
AcDbDictionary
281
1
  3
Normal
350
13
100
AcDbDictionaryWithDefault
340
13
  0
ACDBPLACEHOLDER
  5
13
330
12
  0
DICTIONARY
  5
14
330
A
100
AcDbDictionary
281
1
  0
DICTIONARY
  5
15
330
A
100
AcDbDictionary
281
1
  0
DICTIONARY
  5
16
330
A
100
AcDbDictionary
281
1
  0
LAYOUT
  5
1A
330
D
100
AcDbPlotSettings
  1

  4
A3
  6

 40
7.5
 41
20.0
 42
7.5
 43
20.0
 44
420.0
 45
297.0
 46
0.0
 47
0.0
 48
0.0
 49
0.0
140
0.0
141
0.0
142
1.0
143
1.0
 70
1024
 72
1
 73
0
 74
5
  7

 75
16
 76
0
 77
2
 78
300
147
1.0
148
0.0
149
0.0
100
AcDbLayout
  1
Model
 70
1
 71
0
 10
0.0
 20
0.0
 11
420.0
 21
297.0
 12
0.0
 22
0.0
 32
0.0
 14
1e+20
 24
1e+20
 34
1e+20
 15
-1e+20
 25
-1e+20
 35
-1e+20
146
0.0
 13
0.0
 23
0.0
 33
0.0
 16
1.0
 26
0.0
 36
0.0
 17
0.0
 27
1.0
 37
0.0
 76
1
330
17
  0
LAYOUT
  5
1E
330
D
100
AcDbPlotSettings
  1

  4
A3
  6

 40
7.5
 41
20.0
 42
7.5
 43
20.0
 44
420.0
 45
297.0
 46
0.0
 47
0.0
 48
0.0
 49
0.0
140
0.0
141
0.0
142
1.0
143
1.0
 70
0
 72
1
 73
0
 74
5
  7

 75
16
 76
0
 77
2
 78
300
147
1.0
148
0.0
149
0.0
100
AcDbLayout
  1
Layout1
 70
1
 71
1
 10
0.0
 20
0.0
 11
420.0
 21
297.0
 12
0.0
 22
0.0
 32
0.0
 14
1e+20
 24
1e+20
 34
1e+20
 15
-1e+20
 25
-1e+20
 35
-1e+20
146
0.0
 13
0.0
 23
0.0
 33
0.0
 16
1.0
 26
0.0
 36
0.0
 17
0.0
 27
1.0
 37
0.0
 76
1
330
1B
  0
MATERIAL
  5
1F
102
{ACAD_REACTORS
330
E
102
}
330
E
100
AcDbMaterial
  1
ByBlock
  2

 70
0
 40
1.0
 71
1
 41
1.0
 91
-1023410177
 42
1.0
 72
1
  3

 73
1
 74
1
 75
1
 44
0.5
 73
0
 45
1.0
 46
1.0
 77
1
  4

 78
1
 79
1
170
1
 48
1.0
171
1
  6

172
1
173
1
174
1
140
1.0
141
1.0
175
1
  7

176
1
177
1
178
1
143
1.0
179
1
  8

270
1
271
1
272
1
145
1.0
146
1.0
273
1
  9

274
1
275
1
276
1
 42
1.0
 72
1
  3

 73
1
 74
1
 75
1
 94
63
  0
MATERIAL
  5
20
102
{ACAD_REACTORS
330
E
102
}
330
E
100
AcDbMaterial
  1
ByLayer
  2

 70
0
 40
1.0
 71
1
 41
1.0
 91
-1023410177
 42
1.0
 72
1
  3

 73
1
 74
1
 75
1
 44
0.5
 73
0
 45
1.0
 46
1.0
 77
1
  4

 78
1
 79
1
170
1
 48
1.0
171
1
  6

172
1
173
1
174
1
140
1.0
141
1.0
175
1
  7

176
1
177
1
178
1
143
1.0
179
1
  8

270
1
271
1
272
1
145
1.0
146
1.0
273
1
  9

274
1
275
1
276
1
 42
1.0
 72
1
  3

 73
1
 74
1
 75
1
 94
63
  0
MATERIAL
  5
21
102
{ACAD_REACTORS
330
E
102
}
330
E
100
AcDbMaterial
  1
Global
  2

 70
0
 40
1.0
 71
1
 41
1.0
 91
-1023410177
 42
1.0
 72
1
  3

 73
1
 74
1
 75
1
 44
0.5
 73
0
 45
1.0
 46
1.0
 77
1
  4

 78
1
 79
1
170
1
 48
1.0
171
1
  6

172
1
173
1
174
1
140
1.0
141
1.0
175
1
  7

176
1
177
1
178
1
143
1.0
179
1
  8

270
1
271
1
272
1
145
1.0
146
1.0
273
1
  9

274
1
275
1
276
1
 42
1.0
 72
1
  3

 73
1
 74
1
 75
1
 94
63
  0
MLINESTYLE
  5
22
102
{ACAD_REACTORS
330
10
102
}
330
10
100
AcDbMlineStyle
  2
Standard
 70
0
  3

 62
256
 51
90.0
 52
90.0
 71
2
 49
0.5
 62
256
  6
BYLAYER
 49
-0.5
 62
256
  6
BYLAYER
  0
MLEADERSTYLE
  5
2C
102
{ACAD_REACTORS
330
F
102
}
330
F
100
AcDbMLeaderStyle
179
2
170
2
171
1
172
0
 90
2
 40
0.0
 41
0.0
173
1
 91
-1056964608
 92
-2
290
1
 42
2.0
291
1
 43
8.0
  3
Standard
 44
4.0
300

342
29
174
1
175
1
176
0
178
1
 93
-1056964608
 45
4.0
292
0
297
0
 46
4.0
 94
-1056964608
 47
1.0
 49
1.0
140
1.0
294
1
141
0.0
177
0
142
1.0
295
0
296
0
143
3.75
271
0
272
9
273
9
  0
DICTIONARY
  5
2D
330
A
100
AcDbDictionary
280
1
281
1
  3
CREATED_BY_EZDXF
350
2E
  3
WRITTEN_BY_EZDXF
350
5E
  0
DICTIONARYVAR
  5
2E
330
2D
100
DictionaryVariables
280
0
  1
1.4.2 @ 2026-09-25T06:02:11.306423+00:00
  0
DICTIONARYVAR
  5
5E
330
2D
100
DictionaryVariables
280
0
  1
1.4.2 @ 2026-09-25T06:02:11.348277+00:00
  0
ENDSEC
  0
EOF
